<?xml version="1.0" standalone="no"?><!DOCTYPE svg PUBLIC "-//W3C//DTD SVG 1.1//EN" "http://www.w3.org/Graphics/SVG/1.1/DTD/svg11.dtd"><svg t="1587104842709" class="icon" viewBox="0 0 1239 1024" version="1.1" xmlns="http://www.w3.org/2000/svg" p-id="22726" xmlns:xlink="http://www.w3.org/1999/xlink" width="241.9921875" height="200"><defs><style type="text/css"></style></defs><path d="M857.24454 0H176.970612A177.246697 177.246697 0 0 0 0 176.970612v464.651389a381.549744 381.549744 0 0 0 9.939067 85.034241l265.04179-265.041791a92.764627 92.764627 0 0 1 131.14047 0l158.748988 158.748989a22.638986 22.638986 0 0 0 32.025883 0l191.603128-191.603127h-36.719331a46.382313 46.382313 0 0 1-45.830143-53.008358 48.86708 48.86708 0 0 1 49.41925-39.756269h144.116474a47.762739 47.762739 0 0 1 47.486654 47.762739v147.705581a46.382313 46.382313 0 0 1-53.008358 45.830143 48.86708 48.86708 0 0 1-39.756269-49.41925v-33.406309l-206.787813 206.787813a94.145053 94.145053 0 0 1-133.073066 0l-165.651119-165.651119a22.638986 22.638986 0 0 0-32.025883 0l-276.085198 276.085199a382.654085 382.654085 0 0 0 341.51739 211.205176H1062.928013a177.246697 177.246697 0 0 0 176.970612-176.970612V382.377999A382.93017 382.93017 0 0 0 857.24454 0zM854.207603 429.036398z" p-id="22727"></path></svg>