<?xml version="1.0" standalone="no"?><!DOCTYPE svg PUBLIC "-//W3C//DTD SVG 1.1//EN" "http://www.w3.org/Graphics/SVG/1.1/DTD/svg11.dtd"><svg t="1587104828800" class="icon" viewBox="0 0 1024 1024" version="1.1" xmlns="http://www.w3.org/2000/svg" p-id="21966" xmlns:xlink="http://www.w3.org/1999/xlink" width="200" height="200"><defs><style type="text/css"></style></defs><path d="M750.933333 541.866667c-51.2-34.133333-106.666667-59.733333-170.666666-72.533334 93.866667-34.133333 153.6-119.466667 153.6-213.333333 0-128-106.666667-230.4-238.933334-230.4C362.666667 25.6 256 128 256 256c0 98.133333 64 179.2 153.6 213.333333-196.266667 38.4-349.866667 209.066667-349.866667 409.6 0 46.933333 34.133333 64 64 76.8 115.2 38.4 285.866667 51.2 366.933334 51.2 34.133333 0 81.066667 0 132.266666-8.533333-25.6-46.933333-42.666667-102.4-42.666666-162.133333-4.266667-128 68.266667-238.933333 170.666666-294.4z m209.066667 230.4h-102.4l38.4-110.933334c4.266667-8.533333-4.266667-12.8-8.533333-12.8h-102.4c-4.266667 0-8.533333 4.266667-8.533334 8.533334l-72.533333 183.466666c-4.266667 8.533333 4.266667 17.066667 8.533333 17.066667h68.266667v136.533333c0 8.533333 12.8 12.8 21.333333 8.533334l170.666667-204.8c0-12.8-4.266667-25.6-12.8-25.6z" p-id="21967"></path></svg>