<svg xmlns="http://www.w3.org/2000/svg" width="12" height="12.632" viewBox="0 0 12 12.632"><defs><style>.a{}</style></defs><path class="a" d="M129.263,99.761A1.263,1.263,0,0,1,128,98.5V88.393a1.263,1.263,0,0,1,1.263-1.263H138.1a1.263,1.263,0,0,1,1.263,1.263v.632c0,.349-.156.632-.505.632s-.442-.283-.442-.632v-.695a.253.253,0,0,0-.253-.253H129.2a.253.253,0,0,0-.253.253V98.561a.253.253,0,0,0,.253.253h8.968a.253.253,0,0,0,.253-.253V96.6c0-.349.093-.632.442-.632s.505.283.505.632V98.5a1.263,1.263,0,0,1-1.263,1.263h-8.842Zm1.895-10.105h1.263c.349,0,.632.157.632.505s-.283.442-.632.442h-1.263c-.349,0-.632-.093-.632-.442S130.809,89.656,131.158,89.656Zm8.638,2.31a.7.7,0,0,1,0,.983l-4.082,4.08a.7.7,0,0,1-.491.2l-1.473,0a.7.7,0,0,1-.7-.694l0-1.477a.7.7,0,0,1,.2-.493l4.081-4.08a.7.7,0,0,1,.984,0Zm-2.146-.448-3.576,3.575a.253.253,0,0,0-.074.179v.763a.253.253,0,0,0,.253.252h.76a.253.253,0,0,0,.178-.074l3.577-3.576a.253.253,0,0,0,0-.357l-.762-.761a.253.253,0,0,0-.357,0h0Z" transform="translate(-128 -87.129)"/></svg>