<?xml version="1.0" standalone="no"?><!DOCTYPE svg PUBLIC "-//W3C//DTD SVG 1.1//EN" "http://www.w3.org/Graphics/SVG/1.1/DTD/svg11.dtd"><svg t="1587104774563" class="icon" viewBox="0 0 1439 1024" version="1.1" xmlns="http://www.w3.org/2000/svg" p-id="19218" xmlns:xlink="http://www.w3.org/1999/xlink" width="281.0546875" height="200"><defs><style type="text/css"></style></defs><path d="M1134.205315 274.00235C1034.397538 45.063161 767.885427-59.613986 538.946238 40.19379a452.192671 452.192671 0 0 0-233.794238 233.801399C101.182657 315.413483-30.583944 514.334434 10.83435 718.296615c35.689622 175.777119 190.320783 302.044196 369.685482 301.858014h678.324811c208.122629 0.207664 377.011021-168.337007 377.225847-376.466797 0.17186-179.364699-126.095217-333.99586-301.865175-369.685482z m-195.619805 380.269202l-175.247216 174.946462a43.745566 43.745566 0 0 1-9.29477 7.733706 38.095664 38.095664 0 0 1-4.647384 2.799888l-6.186965 3.093483-6.186965 1.861818-5.263217 1.539581a61.490126 61.490126 0 0 1-24.15351 0l-5.263217-1.539581-6.186965-1.861818-6.194126-3.093483a34.128559 34.128559 0 0 1-4.640224-2.799888 45.020196 45.020196 0 0 1-9.287608-7.733706L500.757483 654.271552a61.962741 61.962741 0 0 1 87.627188-87.627188l69.359888 69.359888V337.511832c0-34.207329 27.726769-61.926937 61.926938-61.926937s61.926937 27.719608 61.926937 61.926937v298.49242l69.359888-69.359888a61.95558 61.95558 0 0 1 87.620028 0 61.941259 61.941259 0 0 1 0.00716 87.627188z" p-id="19219"></path></svg>