<svg xmlns="http://www.w3.org/2000/svg" width="13.286" height="13.286" viewBox="0 0 13.286 13.286"><defs><style>.a{stroke-linejoin:round;}</style></defs><g transform="translate(-5.5 -5.5)"><path class="a" d="M10.1,6H6.683A.683.683,0,0,0,6,6.683V10.1a.683.683,0,0,0,.683.683H10.1a.683.683,0,0,0,.683-.683V6.683A.683.683,0,0,0,10.1,6Z" transform="translate(0 0)"/><path class="a" d="M10.1,28H6.683A.683.683,0,0,0,6,28.683V32.1a.683.683,0,0,0,.683.683H10.1a.683.683,0,0,0,.683-.683V28.683A.683.683,0,0,0,10.1,28Z" transform="translate(0 -14.492)"/><path class="a" d="M30.389,10.778A2.389,2.389,0,1,0,28,8.389,2.389,2.389,0,0,0,30.389,10.778Z" transform="translate(-14.492 0)"/><path class="a" d="M32.1,28H28.683a.683.683,0,0,0-.683.683V32.1a.683.683,0,0,0,.683.683H32.1a.683.683,0,0,0,.683-.683V28.683A.683.683,0,0,0,32.1,28Z" transform="translate(-14.492 -14.492)"/></g></svg>