<?xml version="1.0" standalone="no"?><!DOCTYPE svg PUBLIC "-//W3C//DTD SVG 1.1//EN" "http://www.w3.org/Graphics/SVG/1.1/DTD/svg11.dtd"><svg t="1587109494848" class="icon" viewBox="0 0 1024 1024" version="1.1" xmlns="http://www.w3.org/2000/svg" p-id="62218" xmlns:xlink="http://www.w3.org/1999/xlink" width="200" height="200"><defs><style type="text/css"></style></defs><path d="M924.224 376.768A51.648 51.648 0 0 0 960 327.04V211.52c0-28.48-20.992-51.52-46.848-51.52H704v35.2c0 19.328-14.4 35.2-32 35.2s-32-15.872-32-35.2V160H110.848c-25.856 0-46.848 23.04-46.848 51.52V327.04c0 23.68 15.04 43.136 35.776 49.728C152.96 393.792 192 447.872 192 512s-38.976 118.208-92.224 135.232A51.712 51.712 0 0 0 64 696.96v115.52c0 28.48 20.992 51.52 46.848 51.52H640v-35.2c0-19.392 14.4-35.2 32-35.2s32 15.808 32 35.2v35.2h209.152c25.856 0 46.848-23.04 46.848-51.52V696.96a51.712 51.712 0 0 0-35.776-49.728C871.04 630.208 832 576.128 832 512s38.976-118.208 92.224-135.232zM704 650.688c0 17.6-14.4 32-32 32s-32-14.4-32-32v-64c0-17.6 14.4-32 32-32s32 14.4 32 32v64z m0-213.376c0 17.6-14.4 32-32 32s-32-14.4-32-32v-64c0-17.6 14.4-32 32-32s32 14.4 32 32v64z" p-id="62219"></path></svg>