<?xml version="1.0" standalone="no"?><!DOCTYPE svg PUBLIC "-//W3C//DTD SVG 1.1//EN" "http://www.w3.org/Graphics/SVG/1.1/DTD/svg11.dtd"><svg t="1700720053402" class="icon" viewBox="0 0 1024 1024" version="1.1" xmlns="http://www.w3.org/2000/svg" p-id="18480" xmlns:xlink="http://www.w3.org/1999/xlink" width="200" height="200"><path d="M760.569 81.914l175.048 154.454a96 96 0 0 1 31.024 88.668L939.017 481.57c-6.101 34.574-38.917 57.779-73.548 52.007L832 528v368c0 53.02-42.98 96-96 96H288c-53.02 0-96-42.98-96-96V528l-33.47 5.578c-34.63 5.772-67.446-17.433-73.547-52.007L57.36 325.036a96 96 0 0 1 31.024-88.668L263.43 81.914c31.165-27.499 76.486-31.82 112.285-10.705C421.824 98.403 467.252 112 512 112c44.748 0 90.176-13.597 136.284-40.791 35.8-21.114 81.12-16.794 112.285 10.705z m-42.344 47.99a32 32 0 0 0-37.428-3.569C625.257 159.092 568.767 176 512 176c-56.767 0-113.257-16.908-168.797-49.665a32 32 0 0 0-37.08 3.266l-0.348 0.302-175.048 154.455a32 32 0 0 0-10.423 29.071l0.081 0.485 27.624 156.535L256 452.451V896c0 17.496 14.042 31.713 31.47 32H736c17.496 0 31.713-14.042 31.996-31.47L768 896V452.45l107.99 17.999 27.625-156.535a32 32 0 0 0-9.976-29.228l-0.366-0.328-175.048-154.455z" p-id="18481"></path></svg>