<svg xmlns="http://www.w3.org/2000/svg" width="14.098" height="13.807" viewBox="0 0 14.098 13.807"><defs><style>.a{}</style></defs><path class="a" d="M45.153,57.885a6.04,6.04,0,0,0-5.869-6.077h-.47a6.04,6.04,0,0,0-5.869,6.076A1.875,1.875,0,0,0,32,59.506v.94a1.88,1.88,0,0,0,3.76,0v-.94A1.881,1.881,0,0,0,33.9,57.628a5.08,5.08,0,0,1,4.917-4.88h.47a5.08,5.08,0,0,1,4.917,4.88,1.881,1.881,0,0,0-1.862,1.878v.94a1.875,1.875,0,0,0,1.342,1.792,4.956,4.956,0,0,1-2.819,1.828,1.173,1.173,0,1,0-.111.99,5.91,5.91,0,0,0,4.086-2.843A1.875,1.875,0,0,0,46.1,60.446v-.94A1.873,1.873,0,0,0,45.153,57.885ZM34.82,59.506v.94a.94.94,0,0,1-1.88,0v-.94a.94.94,0,0,1,1.88,0Zm10.339.94a.939.939,0,0,1-.9.936l-.037-.017c0,.008-.008.014-.012.021a.94.94,0,0,1-.934-.939v-.94a.94.94,0,0,1,1.88,0Z" transform="translate(-32 -51.808)"/></svg>