<?xml version="1.0" standalone="no"?><!DOCTYPE svg PUBLIC "-//W3C//DTD SVG 1.1//EN" "http://www.w3.org/Graphics/SVG/1.1/DTD/svg11.dtd"><svg t="1548468538558" class="icon" style="" viewBox="0 0 1024 1024" version="1.1" xmlns="http://www.w3.org/2000/svg" p-id="5696" xmlns:xlink="http://www.w3.org/1999/xlink" width="200" height="200"><defs><style type="text/css"></style></defs><path d="M625.5 744.6l-81-81c-10.7-10.7-10.7-28.1 0-38.8 10.7-10.7 28.1-10.7 38.8 0l63.6 63.6 137.7-137.7c10.7-10.7 28.1-10.7 38.8 0 10.7 10.7 10.7 28.1 0 38.8L668.8 744.1c-5.1 5.1-11.8 7.9-18.8 8-8.9 1.7-18-1-24.5-7.5z m337.2-328.4v334.9c0 87.2-69.5 158-155.3 158H222.7c-85.8 0-155.3-70.8-155.3-158V416.2c0-26.3 6-51.8 17.9-74.5 3.8-7.2 4.1-8.6 9.7-17.4L198.4 190c31.2-39.3 76.6-62.1 124.4-62.1h385.8c48.5 0 94.5 23.4 125.8 63.8l101 132.6c3.1 4.1 7.4 13.7 7.4 14.1 12.9 23.6 19.9 50.2 19.9 77.8z m-139.9-150l-48.1-48.3c-21.8-21.8-53.4-34.4-86.7-34.4H343.1c-32.8 0-64 12.2-85.8 33.5L221 252.5l-14 13.7 22.1-3.6c8.1-1.3 16.3-2 24.7-2h522.7c8.4 0 16.7 0.7 24.8 2l21.5 3.6z m-600.1 47.5c-55.5 0-100.5 45.9-100.5 102.5v334.9c0 56.6 45 102.5 100.5 102.5h584.7c55.5 0 100.5-45.9 100.5-102.5V416.2c0-56.6-45-102.5-100.5-102.5H222.7zM214 616.6h208.4c15.3 0 27.7 12.4 27.7 27.7 0 15.3-12.4 27.7-27.7 27.7H214c-15.3 0-27.7-12.4-27.7-27.7 0-15.2 12.4-27.7 27.7-27.7z m0-151h428.1c15.3 0 27.7 12.4 27.7 27.7 0 15.3-12.4 27.7-27.7 27.7H214c-15.3 0-27.7-12.4-27.7-27.7 0-15.2 12.4-27.7 27.7-27.7z" p-id="5697"></path></svg>