<svg xmlns="http://www.w3.org/2000/svg" width="16" height="16" viewBox="0 0 16 16"><defs><style>.a,.b{}.a{opacity:0;}</style></defs><g transform="translate(0 -4)"><g transform="translate(-32 -291)"><g transform="translate(-24 191)"><rect class="a" width="16" height="16" transform="translate(56 104)"/></g></g><path class="b" d="M36.976,13.354a.166.166,0,0,1-.083,0,.43.43,0,0,1-.3-.214l-1.519-2.733a.415.415,0,0,1,.142-.57l3.445-2.246a1.315,1.315,0,0,1,.757-.2l3.175.086a1.1,1.1,0,0,1,.1,2.2l-1.273.128.1.187,1.858.086c.386-.258,1.6-1.1,2.329-1.6a1.119,1.119,0,0,1,.831-.187,1.018,1.018,0,0,1,.685.43c.015.015.03.03.03.042A1.11,1.11,0,0,1,47,10.294l-3.08,2.187a1.282,1.282,0,0,1-.914.214l-4.2-.614-1.573,1.187a.436.436,0,0,1-.258.086Zm-.956-3,1.074,1.944,1.329-1a.442.442,0,0,1,.329-.086l4.386.662a.43.43,0,0,0,.3-.071L46.51,9.6a.3.3,0,0,0,.1-.157.193.193,0,0,0-.03-.157c0-.015-.03-.03-.03-.045a.243.243,0,0,0-.157-.1.226.226,0,0,0-.184.042L43.766,10.87a.421.421,0,0,1-.258.071l-2.258-.089a.424.424,0,0,1-.371-.243l-.487-.973a.445.445,0,0,1,.015-.4.41.41,0,0,1,.329-.214l1.872-.2a.244.244,0,1,0-.03-.487l-3.2-.086h-.03a.43.43,0,0,0-.229.056Zm7.134-3.46a.736.736,0,0,1-.258-.042c-2.861-1.157-3.816-3.288-3.49-4.905A2.22,2.22,0,0,1,41.581,0a2.875,2.875,0,0,1,1.573.513,2.967,2.967,0,0,1,1.558-.5,2.229,2.229,0,0,1,2.175,1.929c.315,1.617-.629,3.748-3.472,4.905a.745.745,0,0,1-.261.042ZM41.581.843A1.4,1.4,0,0,0,40.237,2.1c-.243,1.258.558,2.947,2.917,3.917,2.344-.97,3.146-2.671,2.9-3.917A1.376,1.376,0,0,0,44.712.858a2.252,2.252,0,0,0-1.3.5.436.436,0,0,1-.516,0A2.187,2.187,0,0,0,41.581.843Z" transform="translate(-33.018 5)"/></g></svg>