<svg xmlns="http://www.w3.org/2000/svg" width="16" height="16" viewBox="0 0 16 16"><defs><style>.a{opacity:0;}.b{fill:none;stroke:#505152;stroke-linecap:round;stroke-linejoin:round;}</style></defs><g transform="translate(-32 -295)"><g transform="translate(-24 191)"><rect class="a" width="16" height="16" transform="translate(56 104)"/></g><g transform="translate(30 292.305)"><ellipse class="b" cx="3" cy="1.5" rx="3" ry="1.5" transform="translate(4 5)"/><path class="b" d="M4,10v2.1c0,.828,1.342,1.5,3,1.5s3-.671,3-1.5V10" transform="translate(0 -3.501)"/><path class="b" d="M4,17v2.1c0,.828,1.342,1.5,3,1.5s3-.671,3-1.5V17" transform="translate(0 -8.403)"/><path class="b" d="M4,24v2.1c0,.828,1.342,1.5,3,1.5s3-.671,3-1.5V24" transform="translate(0 -13.305)"/><path class="b" d="M4,31v2.1c0,.828,1.342,1.5,3,1.5s3-.671,3-1.5V31" transform="translate(0 -18.206)"/><ellipse class="b" cx="3" cy="1.5" rx="3" ry="1.5" transform="translate(10 9)"/><path class="b" d="M24,24v2.1c0,.828,1.342,1.5,3,1.5s3-.671,3-1.5V24" transform="translate(-14.005 -13.305)"/><path class="b" d="M24,31v2.1c0,.828,1.342,1.5,3,1.5s3-.671,3-1.5V31" transform="translate(-14.005 -18.206)"/></g></g></svg>