<?xml version="1.0" standalone="no"?><!DOCTYPE svg PUBLIC "-//W3C//DTD SVG 1.1//EN" "http://www.w3.org/Graphics/SVG/1.1/DTD/svg11.dtd"><svg t="1587108451759" class="icon" viewBox="0 0 1024 1024" version="1.1" xmlns="http://www.w3.org/2000/svg" p-id="54451" xmlns:xlink="http://www.w3.org/1999/xlink" width="200" height="200"><defs><style type="text/css"></style></defs><path d="M355.185 126.932H575.84c23.247 0 42.861-21.914 42.861-49.035 0-27.059-19.554-48.913-44.132-48.913H355.185c-24.457 0-44.011 21.854-44.011 48.913 0.001 27.061 19.615 49.035 44.011 49.035z" p-id="54452"></path><path d="M816.413 663.468c25.667 0 50.064 5.267 72.22 14.953V193.885c0-66.469-35.656-112.476-110.358-112.476h-99.462c0.968 5.327 1.574 10.775 1.574 16.284 0.06 41.164-29.723 81.664-65.077 81.664H309.843c-37.23 0-67.015-40.5-67.015-81.664 0.061-5.449 0.667-10.957 1.635-16.284H143.791c-80.877 0-100.733 46.008-100.733 112.476v657.851c0 71.373 28.452 111.327 106.847 111.327h526.729c-26.333-31.661-42.194-72.523-42.194-117.017 0-100.854 81.422-182.578 181.973-182.578zM255.36 331.244h431.141c15.921 0 29.36 14.891 30.571 32.084 0 16.043-16.708 33.235-32.629 33.235H252.091c-15.981 0-26.091-17.192-26.091-33.235 0-16.042 13.439-32.084 29.36-32.084zM449.5 765.351H252.091c-15.981 0-26.091-17.192-26.091-33.234 0-16.043 13.439-32.024 29.36-32.024h196.199c15.982 0 29.421 14.772 30.632 32.024 0 16.042-16.77 33.234-32.691 33.234z m-199.225-181.55c-15.921 0-31.843-19.613-31.843-35.656 0-15.982 13.439-29.602 29.422-29.602h431.14c15.921 0 29.36 12.409 30.632 29.602 0 16.043-11.018 35.656-26.939 35.656H250.275z" p-id="54453"></path><path d="M833 708.447c-79.484 0-143.957 64.714-143.957 144.561 0 79.909 64.411 144.622 143.957 144.622 79.545 0 144.016-64.653 144.016-144.622 0-79.848-64.532-144.561-144.016-144.561z m95.043 106.786S824.465 917.48 823.92 918.025c-11.805 11.684-17.98 9.807-23.185 4.48l-61.99-62.171c-5.205-5.267-4.903-14.105 0.727-19.735 5.569-5.691 14.408-5.994 19.674-0.667l50.669 50.851 98.13-96.193c5.69-5.568 14.771-5.448 20.34 0.242 5.568 5.752 5.448 14.892-0.242 20.401z" p-id="54454"></path></svg>