<?xml version="1.0" standalone="no"?><!DOCTYPE svg PUBLIC "-//W3C//DTD SVG 1.1//EN" "http://www.w3.org/Graphics/SVG/1.1/DTD/svg11.dtd"><svg t="1587109581118" class="icon" viewBox="0 0 1024 1024" version="1.1" xmlns="http://www.w3.org/2000/svg" p-id="66221" xmlns:xlink="http://www.w3.org/1999/xlink" width="200" height="200"><defs><style type="text/css"></style></defs><path d="M847.927889 138.745994 176.071088 138.745994c-61.842487 0-111.976304 50.238195-111.976304 112.210641l0 522.088776c0 61.9704 50.132794 112.208595 111.976304 112.208595l671.856801 0c61.842487 0 111.976304-50.238195 111.976304-112.208595L959.904193 250.956635C959.904193 188.984189 909.771399 138.745994 847.927889 138.745994zM698.626491 567.988152 325.372485 567.988152c-30.921243 0-55.988152-25.066909-55.988152-55.988152 0-30.921243 25.066909-55.988152 55.988152-55.988152l373.254006 0c30.921243 0 55.988152 25.066909 55.988152 55.988152C754.614643 542.921243 729.547735 567.988152 698.626491 567.988152z" p-id="66222"></path></svg>