<svg xmlns="http://www.w3.org/2000/svg" width="20" height="20" viewBox="0 0 20 20"><defs><style>.a{opacity:0;}.b{}</style></defs><g transform="translate(-818 -579)"><rect class="a" width="20" height="20" transform="translate(818 579)"/><g transform="translate(751.734 495.667)"><path class="b" d="M83.632,580.266H81.071a1.921,1.921,0,0,0-1.921,1.921v2.881a1.921,1.921,0,0,0,1.921,1.921h2.561a1.28,1.28,0,0,0,1.28-1.28v-4.162A1.28,1.28,0,0,0,83.632,580.266Zm-2.561,1.28h2.561v4.162H81.071a.64.64,0,0,1-.64-.64v-2.881A.64.64,0,0,1,81.071,581.547Zm-8.963-1.28H69.547a1.28,1.28,0,0,0-1.28,1.28v4.162a1.28,1.28,0,0,0,1.28,1.28h2.561a1.921,1.921,0,0,0,1.921-1.921v-2.881a1.921,1.921,0,0,0-1.921-1.921Zm-2.561,1.28h2.561a.64.64,0,0,1,.64.64v2.881a.64.64,0,0,1-.64.64H69.547v-4.162Z" transform="translate(0 -485.65)"/><path class="b" d="M76.59,85.333a8.347,8.347,0,0,1,8.322,8.186V97.5a.64.64,0,0,1-1.279.048l0-.048V93.656a7.043,7.043,0,0,0-14.084-.116V97.5a.64.64,0,0,1-1.279.048l0-.048V93.656A8.346,8.346,0,0,1,76.59,85.333Z" transform="translate(0 0)"/></g></g></svg>