<svg xmlns="http://www.w3.org/2000/svg" width="36" height="36" viewBox="0 0 36 36"><defs><style>.a{}.a,.b{opacity:0;}.b,.c{}</style></defs><g transform="translate(-1806.461 -20)"><circle class="a" cx="18" cy="18" r="18" transform="translate(1806.461 20)"/><g transform="translate(197.461 -2)"><rect class="b" width="24" height="24" transform="translate(1615 28)"/><g transform="translate(1547.979 -55.905)"><path class="c" d="M88.013,580.266H84.722a2.468,2.468,0,0,0-2.468,2.468v3.7a2.468,2.468,0,0,0,2.468,2.468h3.291a1.646,1.646,0,0,0,1.646-1.646v-5.348A1.646,1.646,0,0,0,88.013,580.266Zm-3.291,1.646h3.291v5.348H84.722a.823.823,0,0,1-.823-.823v-3.7A.823.823,0,0,1,84.722,581.912ZM73.2,580.266H69.912a1.646,1.646,0,0,0-1.646,1.646v5.348a1.646,1.646,0,0,0,1.646,1.646H73.2a2.468,2.468,0,0,0,2.468-2.468v-3.7a2.468,2.468,0,0,0-2.468-2.468Zm-3.291,1.646H73.2a.823.823,0,0,1,.823.823v3.7a.823.823,0,0,1-.823.823H69.912v-5.348Z" transform="translate(0 -483.002)"/><path class="c" d="M78.963,85.333a10.726,10.726,0,0,1,10.7,10.52v5.113a.823.823,0,0,1-1.644.062l0-.062V96.03a9.051,9.051,0,0,0-18.1-.149v5.086a.823.823,0,0,1-1.644.062l0-.062V96.03A10.725,10.725,0,0,1,78.963,85.333Z" transform="translate(0)"/><path class="c" d="M649.361,290.133a.818.818,0,0,1,.448.132l.046.033a6.81,6.81,0,0,1,2.62,5.438l0,.167h-1.646a5.242,5.242,0,0,0-1.851-4.2l-.114-.088a.823.823,0,0,1,.494-1.481Z" transform="translate(-566.284 -199.863)"/></g></g></g></svg>