<svg xmlns="http://www.w3.org/2000/svg" width="16" height="15" viewBox="0 0 16 15"><defs><style>.a{}</style></defs><g transform="translate(-2712.865 -2317)"><g transform="translate(2712.865 2317)"><path class="a" d="M118.348,138.864q-3.135-3.254-6.3-6.482a1.829,1.829,0,0,0-1.442-.579,2.01,2.01,0,0,0-1.389.712q-3.021,3.116-6.051,6.223a3.113,3.113,0,0,0-.3.331.733.733,0,0,0,0,.987.666.666,0,0,0,.957.119c.14-.093.273-.2.553-.4,0,.5,0,.794,0,1.092,0,1.288-.013,2.577.005,3.865a1.882,1.882,0,0,0,2.062,2.056q1.024.019,2.048,0c.846-.015,1.059-.224,1.076-1.055.013-.659,0-1.318.007-1.977,0-.227.051-.452.084-.722h1.4c.475,0,.951.018,1.425-.011a.751.751,0,0,0,.8-.774.727.727,0,0,0-.788-.686c-1.217-.021-2.434-.017-3.651,0a.688.688,0,0,0-.726.742c-.018.569-.008,1.138-.009,1.708,0,.381,0,.763,0,1.2-.366.022-.627.048-.888.051-1.185.01-1.36-.158-1.364-1.324-.005-1.738.014-3.476-.013-5.213a1.29,1.29,0,0,1,.418-1.02c1.2-1.2,2.375-2.433,3.565-3.648.77-.786.985-.79,1.742-.015q2.72,2.784,5.431,5.578a2.368,2.368,0,0,0,.586.541.928.928,0,0,0,.732.045.861.861,0,0,0,.363-.643A1.12,1.12,0,0,0,118.348,138.864Z" transform="translate(-102.678 -131.801)"/><path class="a" d="M578.152,590.108c0-.6.031-1.21-.01-1.811a.742.742,0,0,0-.75-.755c-.4,0-.676.262-.75.756a4.376,4.376,0,0,0-.021.633c0,.664.009,1.329,0,1.993-.017.934-.189,1.1-1.122,1.126-.634.016-1.273-.03-1.9.046a.974.974,0,0,0-.645.508.824.824,0,0,0,.16.726,1.128,1.128,0,0,0,.729.255c.754.032,1.51.026,2.264.008a1.932,1.932,0,0,0,2.057-2.038c.019-.482,0-.966,0-1.449Z" transform="translate(-563.857 -578.61)"/></g></g></svg>