<?xml version="1.0" standalone="no"?><!DOCTYPE svg PUBLIC "-//W3C//DTD SVG 1.1//EN" "http://www.w3.org/Graphics/SVG/1.1/DTD/svg11.dtd"><svg t="1587108982779" class="icon" viewBox="0 0 1365 1024" version="1.1" xmlns="http://www.w3.org/2000/svg" p-id="55214" xmlns:xlink="http://www.w3.org/1999/xlink" width="266.6015625" height="200"><defs><style type="text/css"></style></defs><path d="M1225.216 0H140.344889A140.515556 140.515556 0 0 0 0 140.743111v721.521778a140.629333 140.629333 0 0 0 140.288 140.743111H318.008889c68.778667 0 127.431111-49.891556 138.524444-117.987556l2.446223-14.791111a140.401778 140.401778 0 0 1 138.467555-117.987555h170.382222c68.835556 0 127.488 49.891556 138.524445 117.987555l2.446222 14.791111a140.401778 140.401778 0 0 0 138.524444 117.987556h177.720889A140.515556 140.515556 0 0 0 1365.333333 862.264889V140.743111A140.174222 140.174222 0 0 0 1225.216 0z" p-id="55215"></path><path d="M325.063111 325.063111V227.555556h146.318222v97.507555H568.888889v146.318222H471.381333V568.888889H325.063111V471.381333H227.555556V325.063111h97.507555z" fill="#FFFFFF" p-id="55216"></path><path d="M1024 398.222222m-113.777778 0a113.777778 113.777778 0 1 0 227.555556 0 113.777778 113.777778 0 1 0-227.555556 0Z" fill="#FFFFFF" p-id="55217"></path></svg>