<?xml version="1.0" standalone="no"?><!DOCTYPE svg PUBLIC "-//W3C//DTD SVG 1.1//EN" "http://www.w3.org/Graphics/SVG/1.1/DTD/svg11.dtd"><svg t="1587108990749" class="icon" viewBox="0 0 1194 1024" version="1.1" xmlns="http://www.w3.org/2000/svg" p-id="55351" xmlns:xlink="http://www.w3.org/1999/xlink" width="233.203125" height="200"><defs><style type="text/css"></style></defs><path d="M1109.333333 938.666667h-341.333333l-85.333333 85.333333-85.333334-85.333333a85.333333 85.333333 0 0 1-85.333333-85.333334v-341.333333a85.333333 85.333333 0 0 1 85.333333-85.333333h512a85.333333 85.333333 0 0 1 85.333334 85.333333v341.333333a85.333333 85.333333 0 0 1-85.333334 85.333334z m-426.666666-298.666667a42.666667 42.666667 0 1 0 42.666666 42.666667 42.666667 42.666667 0 0 0-42.666666-42.666667z m170.666666 0a42.666667 42.666667 0 1 0 42.666667 42.666667 42.666667 42.666667 0 0 0-42.666667-42.666667z m170.666667 0a42.666667 42.666667 0 1 0 42.666667 42.666667 42.666667 42.666667 0 0 0-42.666667-42.666667z m-597.333333-213.333333v512a85.333333 85.333333 0 0 0 85.333333 85.333333H213.333333l170.666667-170.666667H85.333333a85.333333 85.333333 0 0 1-85.333333-85.333333V85.333333a85.333333 85.333333 0 0 1 85.333333-85.333333h853.333334a85.333333 85.333333 0 0 1 85.333333 85.333333v256H512a85.333333 85.333333 0 0 0-85.333333 85.333334z m-213.333334 85.333333h42.666667a42.666667 42.666667 0 0 0 0-85.333333H213.333333a42.666667 42.666667 0 0 0 0 85.333333z m426.666667-298.666667a42.666667 42.666667 0 0 0-42.666667-42.666666H213.333333a42.666667 42.666667 0 0 0 0 85.333333h384a42.666667 42.666667 0 0 0 42.666667-42.666667z" p-id="55352"></path></svg>