<?xml version="1.0" standalone="no"?><!DOCTYPE svg PUBLIC "-//W3C//DTD SVG 1.1//EN" "http://www.w3.org/Graphics/SVG/1.1/DTD/svg11.dtd"><svg t="1565695082177" class="icon" viewBox="0 0 1024 1024" version="1.1" xmlns="http://www.w3.org/2000/svg" p-id="854" xmlns:xlink="http://www.w3.org/1999/xlink" width="200" height="200"><defs><style type="text/css"></style></defs><path d="M877.1 245.2c-14.6-36.2-36-68.5-63.7-96.2-27.7-27.7-60-49.1-96.2-63.7-34.9-14.1-71.7-21.2-109.5-21.2S533 71.2 498.2 85.3c-36.2 14.6-68.5 36-96.2 63.7L139 412c-15.6 15.6-15.6 40.9 0 56.6s40.9 15.6 56.6 0l263-263c39.6-39.6 92.6-61.5 149.1-61.5s109.5 21.8 149.1 61.5c39.6 39.6 61.5 92.6 61.5 149.1s-21.8 109.5-61.5 149.1L591.6 669l-0.5 0.5-174.4 174.4c-48.2 48.2-126.7 48.2-175 0-48.2-48.2-48.2-126.7 0-175l174.4-174.4c0.5-0.5 0.9-0.9 1.3-1.4l121.9-121.9c7.5-7.5 17.5-11.6 28.2-11.6s20.8 4.1 28.2 11.6c7.5 7.5 11.6 17.5 11.6 28.2s-4.1 20.8-11.6 28.2l-233 233.2c-15.6 15.6-15.6 40.9 0 56.6 7.8 7.8 18 11.7 28.3 11.7s20.5-3.9 28.3-11.7l233.2-233.2c22.6-22.6 35-52.7 35-84.8 0-32.1-12.4-62.2-35-84.8-22.6-22.6-52.7-35-84.8-35s-62.2 12.4-84.8 35L311.1 486.4c-0.5 0.5-0.9 0.9-1.3 1.4L185.2 612.3c-38.4 38.4-59.5 89.5-59.5 144.1 0 54.5 21.1 105.7 59.5 144.1S274.7 960 329.3 960c54.5 0 105.7-21.1 144.1-59.5l50-50 0.5-0.5 289.6-289.6c27.7-27.7 49.1-60 63.7-96.2 14.1-34.9 21.2-71.7 21.2-109.5-0.1-37.8-7.2-74.7-21.3-109.5z" p-id="855"></path></svg>