<svg xmlns="http://www.w3.org/2000/svg" width="20" height="20" viewBox="0 0 20 20"><defs><style>.a{opacity:0;}.b{}</style></defs><g transform="translate(-818 -579)"><rect class="a" width="20" height="20" transform="translate(818 579)"/><path class="b" d="M130.4,1.322A1.087,1.087,0,0,0,129.322,2.4V16.823A1.087,1.087,0,0,0,130.4,17.9h9.613a1.088,1.088,0,0,0,1.081-1.081V2.4a1.087,1.087,0,0,0-1.081-1.081ZM130.4,0h9.613a2.4,2.4,0,0,1,2.4,2.4V16.823a2.4,2.4,0,0,1-2.4,2.4H130.4a2.4,2.4,0,0,1-2.4-2.4V2.4A2.4,2.4,0,0,1,130.4,0Zm3.124,14.419h3.365a.721.721,0,1,1,0,1.442h-3.365a.721.721,0,1,1,0-1.442Zm0,0" transform="translate(693 579)"/></g></svg>