<?xml version="1.0" standalone="no"?><!DOCTYPE svg PUBLIC "-//W3C//DTD SVG 1.1//EN" "http://www.w3.org/Graphics/SVG/1.1/DTD/svg11.dtd"><svg t="1548658216585" class="icon" style="" viewBox="0 0 1024 1024" version="1.1" xmlns="http://www.w3.org/2000/svg" p-id="2777" xmlns:xlink="http://www.w3.org/1999/xlink" width="200" height="200"><defs><style type="text/css"></style></defs><path d="M590 65.7c10.6 0 20.6 4.2 28.2 11.8 7.6 7.6 11.8 17.6 11.8 28.2 0 10.6-4.2 20.6-11.8 28.2-7.6 7.6-17.6 11.8-28.2 11.8H434c-10.6 0-20.6-4.2-28.2-11.8-7.6-7.6-11.8-17.6-11.8-28.2s4.2-20.6 11.8-28.2c7.6-7.6 17.6-11.8 28.2-11.8h156m0-64H434c-57.2 0-104 46.8-104 104s46.8 104 104 104h156c57.2 0 104-46.8 104-104s-46.8-104-104-104z" fill="" p-id="2778"></path><path d="M805.7 1024H218.3c-83.8 0-152-68.2-152-152V215.9c0-83.8 68.2-152 152-152h37.9c17.7 0 32 14.3 32 32s-14.3 32-32 32h-37.9c-48.5 0-88 39.5-88 88V872c0 48.5 39.5 88 88 88h587.4c48.5 0 88-39.5 88-88V215.9c0-48.5-39.5-88-88-88h-37.4c-17.7 0-32-14.3-32-32s14.3-32 32-32h37.4c83.8 0 152 68.2 152 152V872c0 83.8-68.2 152-152 152z" fill="" p-id="2779"></path><path d="M745.3 448h-320c-17.6 0-32-14.4-32-32s14.4-32 32-32h320c17.6 0 32 14.4 32 32s-14.4 32-32 32z" fill="" p-id="2780"></path><path d="M278.7 416m-32 0a32 32 0 1 0 64 0 32 32 0 1 0-64 0Z" fill="" p-id="2781"></path><path d="M745.3 608h-320c-17.6 0-32-14.4-32-32s14.4-32 32-32h320c17.6 0 32 14.4 32 32s-14.4 32-32 32z" fill="" p-id="2782"></path><path d="M278.7 576m-32 0a32 32 0 1 0 64 0 32 32 0 1 0-64 0Z" fill="" p-id="2783"></path><path d="M745.3 768.2h-320c-17.6 0-32-14.4-32-32s14.4-32 32-32h320c17.6 0 32 14.4 32 32s-14.4 32-32 32z" fill="" p-id="2784"></path><path d="M278.7 736.2m-32 0a32 32 0 1 0 64 0 32 32 0 1 0-64 0Z" fill="" p-id="2785"></path></svg>