<svg xmlns="http://www.w3.org/2000/svg" width="36" height="36" viewBox="0 0 36 36"><defs><style>.a{fill:#edf2f6;}.a,.b{opacity:0;}.b{fill:#fff;}.c,.d,.f{fill:none;}.c,.d{stroke:#4d5156;stroke-width:1.5px;}.c{stroke-linecap:round;stroke-linejoin:round;}.e{stroke:none;}</style></defs><g transform="translate(-1806 -20)"><circle class="a" cx="18" cy="18" r="18" transform="translate(1806 20)"/><g transform="translate(197 -2)"><rect class="b" width="24" height="24" transform="translate(1615 28)"/><g transform="translate(1611.304 25.304)"><path class="c" d="M27.158,30.585h5.789m.588.966-.588-.966ZM26,33.118l1.158-2.533Zm1.158-2.533L30.053,24l2.895,6.585Z" transform="translate(-10.304 -10.704)"/><path class="c" d="M16,6l.419,1.258" transform="translate(-3.17 1.15)"/><path class="c" d="M4.8,11H16.157" transform="translate(2.671 -1.754)"/><path class="c" d="M10,16a8.952,8.952,0,0,0,2.626,4.083,27.339,27.339,0,0,0,4.633,2.8" transform="translate(0.315 -4.657)"/><path class="c" d="M13.512,11a12.849,12.849,0,0,1-2.626,5.359,30.924,30.924,0,0,1-6.128,4.1" transform="translate(2.672 -1.754)"/><g class="d" transform="translate(4.696 3.696)"><circle class="e" cx="11" cy="11" r="11"/><circle class="f" cx="11" cy="11" r="10.25"/></g></g></g></g></svg>