<svg xmlns="http://www.w3.org/2000/svg" width="14" height="14" viewBox="0 0 14 14"><defs><style>.a{fill:none;}.b{fill:#868d9d;}</style></defs><g transform="translate(-263.055 -455)"><rect class="a" width="14" height="14" transform="translate(263.055 455)"/><path class="b" d="M8.305,12.328,6.31,10.333a2.383,2.383,0,0,1-.405-2.747A.476.476,0,0,1,6.657,7.5a.483.483,0,0,1,.087.52A1.713,1.713,0,0,0,7.12,9.9l1.59,1.59a1.746,1.746,0,0,0,2.487,0l.29-.29a1.744,1.744,0,0,0,0-2.485L9.895,7.123a1.742,1.742,0,0,0-1.879-.376.441.441,0,0,1-.52-.086.446.446,0,0,1,.058-.723,2.332,2.332,0,0,1,2.747.405L12.3,8.338a2.356,2.356,0,0,1,0,3.295l-.694.7a2.357,2.357,0,0,1-3.3,0ZM7.93,8.54,4.489,5.1A.429.429,0,0,1,5.1,4.493l3.442,3.44a.421.421,0,0,1,0,.607.419.419,0,0,1-.607,0ZM2.667,6.661.672,4.666a2.358,2.358,0,0,1,0-3.3L1.367.676A2.419,2.419,0,0,1,4.691.647L6.686,2.641a2.38,2.38,0,0,1,.4,2.747.476.476,0,0,1-.752.088.484.484,0,0,1-.086-.521,1.711,1.711,0,0,0-.376-1.879L4.286,1.486a1.743,1.743,0,0,0-2.487,0l-.288.288a1.746,1.746,0,0,0,0,2.487L3.1,5.852a1.744,1.744,0,0,0,1.88.376.44.44,0,0,1,.52.086.5.5,0,0,1-.086.752A2.435,2.435,0,0,1,4.3,7.34,2.289,2.289,0,0,1,2.667,6.661Z" transform="translate(263.571 455.5)"/></g></svg>