<svg xmlns="http://www.w3.org/2000/svg" width="15.213" height="14.085" viewBox="0 0 15.213 14.085"><defs><style>.a{}</style></defs><path class="a" d="M6997.6-10665.885h-2.819a1.958,1.958,0,0,1-1.972,1.97,1.958,1.958,0,0,1-1.973-1.97h-.562a1.7,1.7,0,0,1-1.691-1.691V-10670a2.191,2.191,0,0,1,.254-1.043l1.943-3.775a2.284,2.284,0,0,1,2-1.212h2.141a2.763,2.763,0,0,1,2.677-1.972h3.379a2.825,2.825,0,0,1,2.817,2.816v7.607a1.7,1.7,0,0,1-1.691,1.691h-.563a1.958,1.958,0,0,1-1.972,1.97A1.956,1.956,0,0,1,6997.6-10665.885Zm1.125,0a.831.831,0,0,0,.844.844.831.831,0,0,0,.847-.844.832.832,0,0,0-.847-.847A.831.831,0,0,0,6998.722-10665.885Zm-6.761,0a.829.829,0,0,0,.844.844.831.831,0,0,0,.847-.844.832.832,0,0,0-.847-.847A.83.83,0,0,0,6991.96-10665.885Zm9.213-1.128h.927a.567.567,0,0,0,.565-.563v-3.1a2.883,2.883,0,0,1-1.691.565H6997.6a2.826,2.826,0,0,1-2.819-2.816v-1.975h-2a1.178,1.178,0,0,0-1.016.621l-1.943,3.776a1.468,1.468,0,0,0-.113.507v2.422a.567.567,0,0,0,.563.563h.93a1.96,1.96,0,0,1,1.605-.845,2.006,2.006,0,0,1,1.608.845h3.548a1.96,1.96,0,0,1,1.605-.845A2.006,2.006,0,0,1,7001.174-10667.013Zm-5.269-8.171v2.256a1.7,1.7,0,0,0,1.691,1.688h3.379a1.7,1.7,0,0,0,1.691-1.688v-2.256a1.7,1.7,0,0,0-1.691-1.688H6997.6A1.7,1.7,0,0,0,6995.905-10675.184Zm-3.664,3.663a.564.564,0,0,1-.562-.562.563.563,0,0,1,.563-.563h1.128a.564.564,0,0,1,.563.563.566.566,0,0,1-.562.563Z" transform="translate(-6988.579 10678)"/></svg>