<?xml version="1.0" standalone="no"?><!DOCTYPE svg PUBLIC "-//W3C//DTD SVG 1.1//EN" "http://www.w3.org/Graphics/SVG/1.1/DTD/svg11.dtd"><svg t="1587109452990" class="icon" viewBox="0 0 1024 1024" version="1.1" xmlns="http://www.w3.org/2000/svg" p-id="61384" xmlns:xlink="http://www.w3.org/1999/xlink" width="200" height="200"><defs><style type="text/css"></style></defs><path d="M479.52 871.72h66.62v88.82h-66.62z" p-id="61385"></path><path d="M297.08 990.16c0-18.38 14.92-33.32 33.3-33.32h364.36c18.38 0 33.32 14.92 33.32 33.32 0 18.38-14.92 33.3-33.32 33.3H330.38c-18.38 0-33.3-14.92-33.3-33.3zM940.6 4.02H85.14c-45.44 0-82.28 36.82-82.28 82.28v703.16c0 45.44 36.82 82.28 82.28 82.28H940.6c45.44 0 82.28-36.82 82.28-82.28V86.28c-0.02-45.44-36.84-82.26-82.28-82.26z m-97.08 579.02c-45.26 0-81.98-36.72-81.98-81.98 0-7.22 1.04-14.2 2.8-20.88l-191.62-100.24c-15.06 17.6-37.38 28.82-62.38 28.82-19.6 0-37.62-6.92-51.7-18.38l-181.66 142.34a81.1 81.1 0 0 1 7.88 34.96c0 45.26-36.7 81.96-81.96 81.96-45.26 0-81.98-36.7-81.98-81.96 0-45.26 36.7-81.98 81.98-81.98 19.6 0 37.62 6.92 51.7 18.38l181.72-142.34a81.012 81.012 0 0 1-7.88-34.94c0-45.26 36.7-81.98 81.96-81.98 45.26 0 81.98 36.72 81.98 81.98 0 7.22-1.04 14.2-2.8 20.88l191.54 100.18c15.04-17.6 37.38-28.82 62.38-28.82 45.26 0 81.98 36.7 81.98 81.96 0 45.26-36.7 82.04-81.96 82.04z m0 0" p-id="61386"></path></svg>