<?xml version="1.0" standalone="no"?><!DOCTYPE svg PUBLIC "-//W3C//DTD SVG 1.1//EN" "http://www.w3.org/Graphics/SVG/1.1/DTD/svg11.dtd"><svg t="1587104611960" class="icon" viewBox="0 0 1024 1024" version="1.1" xmlns="http://www.w3.org/2000/svg" p-id="6391" xmlns:xlink="http://www.w3.org/1999/xlink" width="200" height="200"><defs><style type="text/css"></style></defs><path d="M930.816 284.672L852.48 120.32c-12.288-26.112-38.4-43.008-67.584-43.008H231.424c-29.696 0-56.32 17.408-68.096 44.544L87.552 290.304l-38.4 87.04c-15.36 35.328-16.896 75.264-0.512 110.08 27.136 58.368 86.528 98.816 155.136 98.816 56.832 0 107.008-27.648 137.728-70.144 8.192-11.264 24.576-11.264 32.768 0C405.504 558.592 455.68 586.24 512 586.24s107.008-27.648 137.728-70.144c8.192-11.264 24.576-11.264 32.768 0 31.232 42.496 81.408 70.144 137.728 70.144 68.096 0 126.976-39.936 154.624-97.792 16.896-35.328 14.848-77.312-2.048-113.152l-41.984-90.624z m-268.8 280.064z m0 0z m0 0z m150.528 76.288c-51.712 0-98.816-18.432-135.68-49.152-8.192-7.168-20.992-7.168-29.184 0-36.864 30.72-83.968 49.152-135.68 49.152s-98.816-18.432-135.68-49.152c-8.192-7.168-20.992-7.168-29.184 0-36.864 30.72-83.968 49.152-135.68 49.152-29.696 0-57.856-6.144-82.944-16.896v252.928c0 38.4 31.232 69.632 69.632 69.632h627.712c38.4 0 69.632-31.232 69.632-69.632V624.128c-25.6 10.752-53.76 16.896-82.944 16.896z m-439.808 245.76c0 11.776-9.728 21.504-21.504 21.504h-43.008c-11.776 0-21.504-9.728-21.504-21.504V714.24c0-11.776 9.728-21.504 21.504-21.504h43.008c11.776 0 21.504 9.728 21.504 21.504v172.544z" p-id="6392"></path></svg>