<?xml version="1.0" standalone="no"?><!DOCTYPE svg PUBLIC "-//W3C//DTD SVG 1.1//EN" "http://www.w3.org/Graphics/SVG/1.1/DTD/svg11.dtd"><svg t="1587105011341" class="icon" viewBox="0 0 1024 1024" version="1.1" xmlns="http://www.w3.org/2000/svg" p-id="22908" xmlns:xlink="http://www.w3.org/1999/xlink" width="200" height="200"><defs><style type="text/css"></style></defs><path d="M512.512 481.9456V28.16a27.8016 27.8016 0 0 0-29.5936-27.8016 511.6416 511.6416 0 1 0 540.5184 537.4976 27.8016 27.8016 0 0 0-27.8016-29.44h-456.704a26.4192 26.4192 0 0 1-26.4704-26.4192z" p-id="22909"></path><path d="M594.5856 452.7616h393.984a27.8016 27.8016 0 0 0 27.392-32.768 512.1024 512.1024 0 0 0-415.232-412.8768 27.8016 27.8016 0 0 0-32.6656 27.392v391.8336a26.4192 26.4192 0 0 0 26.5216 26.4192z" p-id="22910"></path></svg>