<?xml version="1.0" standalone="no"?><!DOCTYPE svg PUBLIC "-//W3C//DTD SVG 1.1//EN" "http://www.w3.org/Graphics/SVG/1.1/DTD/svg11.dtd"><svg t="1587109821781" class="icon" viewBox="0 0 1024 1024" version="1.1" xmlns="http://www.w3.org/2000/svg" p-id="76957" xmlns:xlink="http://www.w3.org/1999/xlink" width="200" height="200"><defs><style type="text/css"></style></defs><path d="M883.2 204.8V320h-64V204.8c0-38.4-25.6-64-64-64H140.8c-38.4 0-64 25.6-64 64v416c0 38.4 25.6 64 64 64H320v64H140.8c-70.4 0-128-57.6-128-128V204.8c0-70.4 57.6-128 128-128h614.4c70.4 0 128 57.6 128 128z" p-id="76958"></path><path d="M870.4 230.4c70.4 0 128 57.6 128 128v441.6c0 38.4-25.6 64-64 64h-192c-12.8 0-25.6 6.4-38.4 12.8l-83.2 57.6c-19.2 12.8-51.2 12.8-70.4 0l-83.2-57.6c-12.8-6.4-25.6-12.8-38.4-12.8h-192c-38.4 0-64-25.6-64-64V358.4c0-70.4 57.6-128 128-128h569.6zM345.6 467.2h-6.4c-32 6.4-51.2 32-51.2 64s25.6 57.6 57.6 57.6h6.4c32-6.4 51.2-32 51.2-57.6 0-32-25.6-64-57.6-64z m236.8 0l-6.4 6.4c-25.6 0-51.2 25.6-51.2 57.6s25.6 57.6 57.6 57.6h6.4c32-6.4 51.2-32 51.2-57.6 0-32-25.6-64-57.6-64z m236.8 0h-6.4c-32 6.4-51.2 25.6-51.2 57.6s25.6 57.6 57.6 57.6h6.4c32-6.4 51.2-25.6 51.2-57.6 6.4-25.6-25.6-57.6-57.6-57.6z" p-id="76959"></path></svg>