<svg xmlns="http://www.w3.org/2000/svg" width="16" height="16" viewBox="0 0 16 16"><defs><style>.a,.b{}.a{opacity:0;}</style></defs><g transform="translate(-7 -4)"><g transform="translate(-25 -291)"><g transform="translate(-24 191)"><rect class="a" width="16" height="16" transform="translate(56 104)"/></g></g><path class="b" d="M97.463,70.155a8.4,8.4,0,0,0,4.369-1.048v1.252h.949V67.618c0-1.648-2.739-2.537-5.316-2.537s-5.318.89-5.318,2.537V75.1c0,1.648,2.739,2.537,5.316,2.537v-.947c-2.707,0-4.369-.926-4.369-1.59V72.85A8.406,8.406,0,0,0,97.463,73.9v-.949c-2.707,0-4.369-.926-4.369-1.59v-2.25A8.41,8.41,0,0,0,97.463,70.155Zm0-4.127c2.707,0,4.369.926,4.369,1.59s-1.662,1.59-4.369,1.59-4.369-.926-4.369-1.59S94.758,66.028,97.463,66.028Zm4.25,4.646c-2.354,0-3.585.906-3.585,1.8v4.807c0,.894,1.233,1.8,3.585,1.8,2.337,0,3.566-.893,3.585-1.781h0V72.474C105.3,71.58,104.068,70.675,101.714,70.675Zm0,.947c1.741,0,2.638.6,2.638.853s-.9.853-2.638.853-2.638-.6-2.638-.853S99.973,71.622,101.714,71.622Zm0,6.512c-1.741,0-2.638-.6-2.638-.853V76.134a6.658,6.658,0,0,0,5.276,0v1.148C104.352,77.536,103.454,78.134,101.714,78.134Zm0-2.4c-1.741,0-2.638-.6-2.638-.853V73.729a6.658,6.658,0,0,0,5.276,0v1.148C104.352,75.132,103.454,75.73,101.714,75.73Z" transform="translate(-83.723 -60.081)"/></g></svg>