<?xml version="1.0" standalone="no"?><!DOCTYPE svg PUBLIC "-//W3C//DTD SVG 1.1//EN" "http://www.w3.org/Graphics/SVG/1.1/DTD/svg11.dtd"><svg t="1587109374539" class="icon" viewBox="0 0 1024 1024" version="1.1" xmlns="http://www.w3.org/2000/svg" p-id="59247" xmlns:xlink="http://www.w3.org/1999/xlink" width="200" height="200"><defs><style type="text/css"></style></defs><path d="M879.025231 512H144.974769A66.166154 66.166154 0 0 1 78.769231 445.794462V361.550769A66.166154 66.166154 0 0 1 144.974769 295.384615h168.172308a246.862769 246.862769 0 0 1-40.211692-31.744 108.307692 108.307692 0 0 1 153.206153-153.166769 359.778462 359.778462 0 0 1 85.07077 175.734154l0.787692 4.568615 0.787692-4.568615a359.778462 359.778462 0 0 1 85.07077-175.734154 108.307692 108.307692 0 0 1 153.206153 153.166769 246.862769 246.862769 0 0 1-40.211692 31.744h168.172308A66.166154 66.166154 0 0 1 945.230769 361.550769v84.243693A66.166154 66.166154 0 0 1 879.025231 512zM387.820308 148.795077a54.153846 54.153846 0 0 0-76.563693 76.563692A312.359385 312.359385 0 0 0 457.846154 295.384615a312.359385 312.359385 0 0 0-70.025846-146.589538z m324.923077 76.563692a54.153846 54.153846 0 1 0-76.563693-76.563692A312.359385 312.359385 0 0 0 566.153846 295.384615 312.359385 312.359385 0 0 0 712.861538 225.358769z m178.333538 653.784616A66.166154 66.166154 0 0 1 824.871385 945.230769H199.128615a66.166154 66.166154 0 0 1-66.205538-66.205538v-312.871385h758.153846v312.871385z" p-id="59248"></path></svg>