<?xml version="1.0" standalone="no"?><!DOCTYPE svg PUBLIC "-//W3C//DTD SVG 1.1//EN" "http://www.w3.org/Graphics/SVG/1.1/DTD/svg11.dtd"><svg t="1587104797154" class="icon" viewBox="0 0 1044 1024" version="1.1" xmlns="http://www.w3.org/2000/svg" p-id="19988" xmlns:xlink="http://www.w3.org/1999/xlink" width="203.90625" height="200"><defs><style type="text/css"></style></defs><path d="M994.742857 938.318367H42.840816c-24.032653 0-42.840816 18.808163-42.840816 42.840817C0 1004.146939 18.808163 1024 42.840816 1024h951.902041c24.032653 0 42.840816-18.808163 42.840816-42.840816s-18.808163-42.840816-42.840816-42.840817zM52.244898 876.669388h174.497959c29.257143 0 52.244898-24.032653 52.244898-52.244898v-386.612245c0-29.257143-24.032653-52.244898-52.244898-52.244898H52.244898c-29.257143 0-52.244898 24.032653-52.244898 52.244898v385.567347c0 29.257143 24.032653 53.289796 52.244898 53.289796zM992.653061 192.261224H818.155102c-29.257143 0-52.244898 24.032653-52.244898 52.244898v578.87347c0 29.257143 24.032653 52.244898 52.244898 52.244898H992.653061c29.257143 0 52.244898-24.032653 52.244898-52.244898V245.55102c0-29.257143-24.032653-53.289796-52.244898-53.289796zM431.542857 876.669388H606.040816c29.257143 0 52.244898-24.032653 52.244898-52.244898V52.244898c0-29.257143-24.032653-52.244898-52.244898-52.244898H431.542857c-29.257143 0-52.244898 24.032653-52.244898 52.244898v771.134694c0 29.257143 22.987755 53.289796 52.244898 53.289796z" p-id="19989"></path></svg>