<svg xmlns="http://www.w3.org/2000/svg" width="13.997" height="14.001" viewBox="0 0 13.997 14.001"><defs><style>.a{fill:#c7c7c7;}</style></defs><g transform="translate(-64.001 -64)"><path class="a" d="M14326,14930a7,7,0,1,1,7,7A7,7,0,0,1,14326,14930Zm4.663-5.529a6,6,0,0,0-1.908,9.769,6.063,6.063,0,0,0,1.908,1.29,6,6,0,0,0,6.579-9.773,6,6,0,0,0-6.579-1.285Zm1.26,9.446a.827.827,0,1,1,.824.791A.811.811,0,0,1,14331.924,14933.919Zm.277-1.845a2.038,2.038,0,0,1,.547-1.581c.432-.428,1.653-1.155,1.653-2.111a1.658,1.658,0,0,0-1.653-1.582,1.549,1.549,0,0,0-1.649,1.582.549.549,0,0,1-1.1,0v-.015a2.752,2.752,0,0,1,5.5.015c0,1.388-1.338,2.179-1.822,2.64a1.221,1.221,0,0,0-.378,1.053.55.55,0,0,1-1.1,0Z" transform="translate(-14262 -14859)"/></g></svg>