<svg xmlns="http://www.w3.org/2000/svg" width="20" height="20" viewBox="0 0 20 20"><defs><style>.a{opacity:0;}.b{}</style></defs><g transform="translate(-818 -579)"><rect class="a" width="20" height="20" transform="translate(818 579)"/><g transform="translate(742.634 453.391)"><path class="b" d="M89.914,143.221H78.32a1.52,1.52,0,0,1-1.52-1.52V129.52A1.52,1.52,0,0,1,78.32,128H92.412a1.52,1.52,0,0,1,1.52,1.52v1.09a.507.507,0,0,1-1.013,0v-1.09a.507.507,0,0,0-.507-.507H78.32a.507.507,0,0,0-.507.507V141.7a.507.507,0,0,0,.507.507H89.914a.507.507,0,1,1,0,1.013Z"/><path class="b" d="M230.907,440.266l7.576-.01a.507.507,0,0,0,0-1.013l-7.576.01a.507.507,0,1,0,0,1.013Zm0-4.052h4.527a.507.507,0,0,0,0-1.013h-4.527a.507.507,0,0,0,0,1.013Z" transform="translate(-150.561 -301.121)"/><path class="b" d="M636.821,320.717a2.62,2.62,0,0,0-2.043.8,2.832,2.832,0,0,0-.717,2.042h.961a2.2,2.2,0,0,1,.4-1.4,1.554,1.554,0,0,1,1.35-.6,1.573,1.573,0,0,1,1.191.425,1.534,1.534,0,0,1,.413,1.131,1.508,1.508,0,0,1-.365.96,5.412,5.412,0,0,1-.413.438,5.072,5.072,0,0,0-1.228,1.41,2.417,2.417,0,0,0-.219,1.058v.28h.973v-.28a1.7,1.7,0,0,1,.231-.887,2.5,2.5,0,0,1,.571-.669,12.033,12.033,0,0,0,.985-.936,2.293,2.293,0,0,0,.462-1.422,2.216,2.216,0,0,0-.681-1.714A2.638,2.638,0,0,0,636.821,320.717Zm-.182,7.4a.7.7,0,0,0-.523.207.652.652,0,0,0-.207.511.7.7,0,0,0,.207.523.765.765,0,0,0,1.046,0,.671.671,0,0,0,.219-.523.7.7,0,0,0-.207-.511A.723.723,0,0,0,636.639,328.121Z" transform="translate(-546.234 -188.903)"/></g></g></svg>