<?xml version="1.0" standalone="no"?><!DOCTYPE svg PUBLIC "-//W3C//DTD SVG 1.1//EN" "http://www.w3.org/Graphics/SVG/1.1/DTD/svg11.dtd"><svg t="1587109613302" class="icon" viewBox="0 0 1024 1024" version="1.1" xmlns="http://www.w3.org/2000/svg" p-id="67563" xmlns:xlink="http://www.w3.org/1999/xlink" width="200" height="200"><defs><style type="text/css"></style></defs><path d="M837.814857 1024l-651.629714 0c-102.144 0-186.185143-84.041143-186.185143-186.185143l0-651.629714c0-102.144 84.041143-186.185143 186.185143-186.185143l651.629714 0c102.144 0 186.185143 84.041143 186.185143 186.185143l0 651.629714c0 102.144-84.041143 186.185143-186.185143 186.185143l0 0ZM329.142857 182.857143c-40.118857 0-73.142857 33.024-73.142857 73.142857 0 40.118857 33.024 73.142857 73.142857 73.142857 40.118857 0 73.142857-33.024 73.142857-73.142857 0-40.118857-33.024-73.142857-73.142857-73.142857ZM329.142857 438.857143c-40.118857 0-73.142857 33.024-73.142857 73.142857 0 40.118857 33.024 73.142857 73.142857 73.142857 40.118857 0 73.142857-33.024 73.142857-73.142857 0-40.118857-33.024-73.142857-73.142857-73.142857ZM329.142857 694.857143c-40.118857 0-73.142857 33.024-73.142857 73.142857 0 40.118857 33.024 73.142857 73.142857 73.142857 40.118857 0 73.142857-33.024 73.142857-73.142857 0-40.118857-33.024-73.142857-73.142857-73.142857ZM694.857143 182.857143c-40.118857 0-73.142857 33.024-73.142857 73.142857 0 40.118857 33.024 73.142857 73.142857 73.142857 40.118857 0 73.142857-33.024 73.142857-73.142857 0-40.118857-33.024-73.142857-73.142857-73.142857ZM694.857143 438.857143c-40.118857 0-73.142857 33.024-73.142857 73.142857 0 40.118857 33.024 73.142857 73.142857 73.142857 40.118857 0 73.142857-33.024 73.142857-73.142857 0-40.118857-33.024-73.142857-73.142857-73.142857ZM694.857143 694.857143c-40.118857 0-73.142857 33.024-73.142857 73.142857 0 40.118857 33.024 73.142857 73.142857 73.142857 40.118857 0 73.142857-33.024 73.142857-73.142857 0-40.118857-33.024-73.142857-73.142857-73.142857Z" p-id="67564"></path></svg>