<?xml version="1.0" standalone="no"?><!DOCTYPE svg PUBLIC "-//W3C//DTD SVG 1.1//EN" "http://www.w3.org/Graphics/SVG/1.1/DTD/svg11.dtd"><svg t="1587104740331" class="icon" viewBox="0 0 1210 1024" version="1.1" xmlns="http://www.w3.org/2000/svg" p-id="17153" xmlns:xlink="http://www.w3.org/1999/xlink" width="236.328125" height="200"><defs><style type="text/css"></style></defs><path d="M852.493 561.939c-23.709 0-23.709 27.996-23.709 88.528s0 88.78 23.709 88.78 25.221-27.996 25.221-88.78-1.26-88.528-25.221-88.528zM399.007 284.753c-25.222 0-25.222 27.744-25.222 88.528s0 88.528 25.222 88.528 23.708-27.744 23.708-88.528 0-88.528-23.708-88.528z" p-id="17154"></path><path d="M1132.958 0H77.683A77.683 77.683 0 0 0 0 77.683v868.634A77.683 77.683 0 0 0 77.683 1024h1055.275a77.683 77.683 0 0 0 77.682-77.683V77.683A77.683 77.683 0 0 0 1132.958 0zM266.845 373.28c0-100.886 25.222-157.635 132.162-157.635s131.91 56.75 131.91 157.636-24.466 156.374-131.91 156.374-132.162-55.488-132.162-156.374z m180.083 448.694L711 201.774h93.572l-264.07 620.2z m405.565-14.88c-107.445 0-131.91-56.75-131.91-157.636s25.222-157.383 131.91-157.383 131.152 57.505 131.152 158.392-23.456 156.627-131.152 156.627z" p-id="17155"></path></svg>