<svg xmlns="http://www.w3.org/2000/svg" width="16" height="16" viewBox="0 0 16 16"><defs><style>.a,.b{}.a{opacity:0;}</style></defs><g transform="translate(0 -4)"><g transform="translate(-32 -291)"><g transform="translate(-24 191)"><rect class="a" width="16" height="16" transform="translate(56 104)"/></g></g><path class="b" d="M76.559,63.875l-6.279-2.691L64,63.875v7.673l6.279,2.673.542-.231h.115v-.049l5.622-2.393Zm-6.279,2.291-1.591-.677,4.471-2.063c.01,0,.017-.014.027-.02l1.783.764Zm1.8-3.233-4.509,2.081-1.984-.845,4.689-2.009ZM64.9,64.849l1.794.764V68.4a.449.449,0,0,0,.9,0V66h0l2.45,1.043v6.105L64.9,70.955Zm6.04,8.117V66.861l4.725-2.012v6.106Z" transform="translate(-62.372 -55.646)"/></g></svg>