<?xml version="1.0" standalone="no"?><!DOCTYPE svg PUBLIC "-//W3C//DTD SVG 1.1//EN" "http://www.w3.org/Graphics/SVG/1.1/DTD/svg11.dtd"><svg t="1587108418818" class="icon" viewBox="0 0 1024 1024" version="1.1" xmlns="http://www.w3.org/2000/svg" p-id="51009" xmlns:xlink="http://www.w3.org/1999/xlink" width="200" height="200"><defs><style type="text/css"></style></defs><path d="M296.192 652.8l-52.352-52.288a26.24 26.24 0 0 0-37.76 0l-9.472 9.472a26.24 26.24 0 0 0 0 37.76l52.288 52.352-52.288 52.288a26.24 26.24 0 0 0 0 37.824l9.472 9.472a26.24 26.24 0 0 0 37.76 0l52.352-52.352 52.288 52.352a26.24 26.24 0 0 0 37.76 0l9.472-9.472a26.24 26.24 0 0 0 0-37.76l-52.288-52.352 52.288-52.288a26.24 26.24 0 0 0 0-37.824l-9.408-9.472a26.24 26.24 0 0 0-37.824 0l-52.288 52.352z m-34.048-390.016H188.416a26.88 26.88 0 0 0-27.072 27.072v13.248a26.88 26.88 0 0 0 27.072 27.072h74.368v74.368a26.88 26.88 0 0 0 27.072 27.136h13.248a26.88 26.88 0 0 0 27.072-27.136V330.24h74.368a26.88 26.88 0 0 0 27.136-27.072v-13.248a26.88 26.88 0 0 0-27.136-27.072H329.6V188.416a26.88 26.88 0 0 0-27.136-27.072H289.28a26.88 26.88 0 0 0-27.072 27.072v74.368zM107.776 0h808.448A108.16 108.16 0 0 1 1024 107.776v808.448A108.16 108.16 0 0 1 916.224 1024H107.776A108.16 108.16 0 0 1 0 916.224V107.776C0 48.512 47.872 0 107.776 0z m521.088 747.968a26.24 26.24 0 0 0 0 37.824l9.472 9.472a26.24 26.24 0 0 0 37.76 0l152.576-152.512a26.24 26.24 0 0 0 0-37.76l-9.472-9.472a26.24 26.24 0 0 0-37.76 0l-152.576 152.448z m30.912-87.552c22.08 0 40.32-18.304 40.32-40.32a40.64 40.64 0 0 0-40.32-40.32 40.64 40.64 0 0 0-40.32 40.32c0 22.016 18.24 40.32 40.32 40.32z m148.096 148.096c22.016 0 40.32-18.304 40.32-40.32a40.64 40.64 0 0 0-40.32-40.32 40.576 40.576 0 0 0-40.32 40.32c0 22.016 18.24 40.32 40.32 40.32zM619.456 255.872a26.88 26.88 0 0 0-27.136 27.072v13.248a26.88 26.88 0 0 0 27.136 27.072h215.488a26.88 26.88 0 0 0 27.072-27.072V282.88a26.88 26.88 0 0 0-27.072-27.072H619.52z" p-id="51010"></path></svg>