<?xml version="1.0" standalone="no"?><!DOCTYPE svg PUBLIC "-//W3C//DTD SVG 1.1//EN" "http://www.w3.org/Graphics/SVG/1.1/DTD/svg11.dtd"><svg t="1700189184756" class="icon" viewBox="0 0 1024 1024" version="1.1" xmlns="http://www.w3.org/2000/svg" p-id="5131" xmlns:xlink="http://www.w3.org/1999/xlink" width="200" height="200"><path d="M884.3264 210.6368c0-69.12-55.296-125.0816-123.5456-125.0816L266.496 85.5552c-68.2496 0-123.5968 55.9616-123.5968 125.0816L101.6832 836.096c0 69.12 55.296 125.1328 123.5968 125.1328l576.7168 0c68.2496 0 123.60192-56.0128 123.60192-125.1328L884.3264 210.6368zM746.6496 255.3344c0 61.5936-23.7056 119.552-66.7648 163.1232-43.008 43.5712-100.2496 67.584-161.1264 67.584-60.8768 0-118.1184-24.0128-161.1776-67.584-43.008-43.5712-66.7136-101.5296-66.7136-163.1232l0-0.6656 56.0128 0.1024 0 0.7168c0.1024 95.8464 77.1584 173.824 171.8784 173.824 94.72 0 171.776-77.9776 171.8272-173.824l0-0.6656 56.064-0.256L746.6496 255.3344z" fill="#272636" p-id="5132"></path></svg>