<?xml version="1.0" standalone="no"?><!DOCTYPE svg PUBLIC "-//W3C//DTD SVG 1.1//EN" "http://www.w3.org/Graphics/SVG/1.1/DTD/svg11.dtd"><svg t="1697005219546" class="icon" viewBox="0 0 1024 1024" version="1.1" xmlns="http://www.w3.org/2000/svg" p-id="22348" xmlns:xlink="http://www.w3.org/1999/xlink" width="200" height="200"><path d="M799.701 398.55a7.68 7.68 0 0 0-12.458 6.1v68.95H550.4V236.8h69.12c6.4 0 10.027-7.424 6.059-12.459L518.059 88.235a7.595 7.595 0 0 0-12.032 0L398.507 224.34a7.68 7.68 0 0 0 6.101 12.502H473.6v236.8H236.8v-69.12a7.723 7.723 0 0 0-12.459-6.102L88.235 505.941a7.595 7.595 0 0 0 0 12.032l136.021 107.52a7.68 7.68 0 0 0 12.459-6.058V550.4h236.8v236.8h-69.12a7.723 7.723 0 0 0-6.102 12.459l107.52 136.021a7.595 7.595 0 0 0 12.075 0l107.52-136.021a7.68 7.68 0 0 0-6.101-12.459H550.4V550.4h236.8v69.12c0 6.4 7.467 10.027 12.459 6.101l135.978-107.52a7.808 7.808 0 0 0 0.128-12.16L799.66 398.507z" p-id="22349"></path></svg>