<svg xmlns="http://www.w3.org/2000/svg" width="14" height="13.21" viewBox="0 0 14 13.21"><defs><style>.a{}</style></defs><path class="a" d="M6908.785-5731.788a.354.354,0,0,1-.354-.356.355.355,0,0,1,.354-.356h.455v-11.32a1.158,1.158,0,0,1,1.135-1.178h4.962a1.156,1.156,0,0,1,1.131,1.178v3.092a.422.422,0,0,1,.269.016l5.426,2.149a.424.424,0,0,1,.236.553.419.419,0,0,1-.395.269.449.449,0,0,1-.154-.029l-.353-.14v5.411h.553a.353.353,0,0,1,.353.356.351.351,0,0,1-.353.356Zm7.683-.712h4.178v-5.748l-4.178-1.656v2.613h1.644a.444.444,0,0,1,.441.446.444.444,0,0,1-.441.447h-1.644v.945h1.644a.444.444,0,0,1,.441.448.443.443,0,0,1-.441.445h-1.644Zm-2.133-2.78a.425.425,0,0,1,.424.426v2.354h.86v-11.32a.289.289,0,0,0-.281-.293h-4.962a.29.29,0,0,0-.283.293v11.32h1.836v-2.354a.426.426,0,0,1,.425-.426Zm-1.557,2.78h1.129v-1.928h-1.129Zm.792-5.1v-1.081a.444.444,0,0,1,.441-.446.444.444,0,0,1,.443.446v1.081a.444.444,0,0,1-.443.445A.444.444,0,0,1,6913.569-5737.6Zm-2.059,0v-1.081a.444.444,0,0,1,.441-.446.444.444,0,0,1,.443.446v1.081a.444.444,0,0,1-.443.445A.444.444,0,0,1,6911.511-5737.6Zm2.059-3.3v-1.079a.444.444,0,0,1,.441-.446.444.444,0,0,1,.443.446v1.079a.444.444,0,0,1-.443.446A.444.444,0,0,1,6913.569-5740.9Zm-2.059,0v-1.079a.444.444,0,0,1,.441-.446.444.444,0,0,1,.443.446v1.079a.444.444,0,0,1-.443.446A.444.444,0,0,1,6911.511-5740.9Z" transform="translate(-6908.43 5744.999)"/></svg>