<svg xmlns="http://www.w3.org/2000/svg" width="16" height="16" viewBox="0 0 16 16"><defs><style>.a{opacity:0;}.b{fill:none;stroke:#505152;stroke-linecap:round;stroke-linejoin:round;}</style></defs><g transform="translate(9688.004 7841)"><rect class="a" width="16" height="16" transform="translate(-9688.004 -7841)"/><g transform="translate(-9691 -7842.899)"><path class="b" d="M18.021,14.443V10.171l-3.914-2.2m-2.192,0L8,10.171v4.273m.939,1.892,4.071,2.29,2.505-1.409,1.566-.881" transform="translate(-2.061 -2.726)"/><path class="b" d="M18.939,17.548,18,18.1v2.192l.939.548.939.548.939-.548.939-.548V18.1l-.939-.548L19.879,17Z" transform="translate(-8.929 -8.929)"/><path class="b" d="M24,11.824V10" transform="translate(-13.05 -3.753)"/><path class="b" d="M30,27l2.192,1.253" transform="translate(-17.171 -15.798)"/><path class="b" d="M13.192,27,11,28.253" transform="translate(-4.121 -15.798)"/><circle class="b" cx="1" cy="1" r="1" transform="translate(10 3.899)"/><circle class="b" cx="1" cy="1" r="1" transform="translate(5 11.899)"/><circle class="b" cx="1" cy="1" r="1" transform="translate(15 11.899)"/></g></g></svg>