<?xml version="1.0" standalone="no"?><!DOCTYPE svg PUBLIC "-//W3C//DTD SVG 1.1//EN" "http://www.w3.org/Graphics/SVG/1.1/DTD/svg11.dtd"><svg t="1587105084612" class="icon" viewBox="0 0 1264 1024" version="1.1" xmlns="http://www.w3.org/2000/svg" p-id="25105" xmlns:xlink="http://www.w3.org/1999/xlink" width="246.875" height="200"><defs><style type="text/css"></style></defs><path d="M993.882353 715.535059l86.738823-86.738824a90.352941 90.352941 0 0 1 127.698824 127.819294l-240.941176 240.941177a90.352941 90.352941 0 0 1-127.698824 0l-240.941176-240.941177a90.352941 90.352941 0 0 1 127.698823-127.819294l86.738824 86.738824V210.823529a90.352941 90.352941 0 0 1 180.705882 0v504.71153zM271.058824 308.404706l-86.738824 86.738823A90.352941 90.352941 0 1 1 56.621176 267.384471l240.941177-240.941177a90.352941 90.352941 0 0 1 127.698823 0l240.941177 240.941177a90.352941 90.352941 0 0 1-127.698824 127.819294L451.764706 308.404706V813.176471a90.352941 90.352941 0 0 1-180.705882 0V308.464941z" p-id="25106"></path></svg>