<?xml version="1.0" standalone="no"?><!DOCTYPE svg PUBLIC "-//W3C//DTD SVG 1.1//EN" "http://www.w3.org/Graphics/SVG/1.1/DTD/svg11.dtd"><svg t="1697012992070" class="icon" viewBox="0 0 1024 1024" version="1.1" xmlns="http://www.w3.org/2000/svg" p-id="5103" xmlns:xlink="http://www.w3.org/1999/xlink" width="200" height="200"><path d="M331.07057778 795.30666667h23.93884444c11.92618667 0 21.59502222-9.66883555 21.59502223-21.59502222V433.47057778c0-11.92618667-9.66883555-21.59502222-21.59502223-21.59502223h-23.93884444c-11.92618667 0-21.59502222 9.66883555-21.59502223 21.59502223v340.24106667c0 11.92618667 9.66883555 21.59502222 21.59502223 21.59502222zM498.32391111 795.30666667h23.93770667c11.92618667 0 21.59502222-9.66883555 21.59502222-21.59502222V433.47057778c0-11.92618667-9.66883555-21.59502222-21.59502222-21.59502223H498.32391111c-11.92618667 0-21.59502222 9.66883555-21.59502222 21.59502223v340.24106667c0 11.92618667 9.66883555 21.59502222 21.59502222 21.59502222zM665.57724445 795.30666667h23.93770666c11.92618667 0 21.59502222-9.66883555 21.59502222-21.59502222V433.47057778c0-11.92618667-9.66883555-21.59502222-21.59502222-21.59502223H665.57724445c-11.92618667 0-21.59502222 9.66883555-21.59502223 21.59502223v340.24106667c0 11.92618667 9.66883555 21.59502222 21.59502223 21.59502222z" p-id="5104"></path><path d="M964.85831111 144.49777778H771.34848l-27.19857778-101.11658667-1.89553777-7.04625778c-1.66912-6.19747555-5.88117333-11.23328-11.20142223-13.90023111-2.61006222-1.11729778-5.47953778-1.95470222-8.4992-1.95470222H301.44512c-3.02648889 0-5.90506667 0.84309333-8.51740445 1.96608-5.31114667 2.66808889-9.51864889 7.59239111-11.18549333 13.78304l-1.89326222 7.09518222L252.64241778 144.49777778H58.00391111C46.07772445 144.49777778 36.40888889 154.16661333 36.40888889 166.0928v51.24551111c0 11.92618667 9.66883555 21.59502222 21.59502222 21.59502222h100.75249778l10.41635556 744.89969778c0 4.15744 1.19580445 7.93372445 3.23242666 11.10698667 3.72736 6.48078222 10.70535111 10.85553778 18.71758222 10.85553777H841.97831111c11.92618667 0 21.59502222-9.66883555 21.59502222-21.59502222v-35.31662222c0-0.78279111-0.04664889-1.55306667-0.12743111-2.31424L873.34115555 238.93333333h91.51715556c11.92618667 0 21.59502222-9.66883555 21.59502222-21.59502222v-51.24551111c0-11.92618667-9.66883555-21.59502222-21.59502222-21.59502222z m-627.23413333-56.88888889h348.75164444l15.24622223 56.88888889H322.37568l15.24849778-56.88888889z m458.60636444 839.68H235.86929778l-9.62673778-688.35555556h579.61358222l-9.6256 688.35555556z" p-id="5105"></path></svg>