<?xml version="1.0" standalone="no"?><!DOCTYPE svg PUBLIC "-//W3C//DTD SVG 1.1//EN" "http://www.w3.org/Graphics/SVG/1.1/DTD/svg11.dtd"><svg t="1548658515511" class="icon" style="" viewBox="0 0 1024 1024" version="1.1" xmlns="http://www.w3.org/2000/svg" p-id="3018" xmlns:xlink="http://www.w3.org/1999/xlink" width="200" height="200"><defs><style type="text/css"></style></defs><path d="M829.8 1022.8H194.5C112 1022.8 45 955.7 45 873.3V237.8c0-82.5 67.1-149.5 149.5-149.5h70.4v66.6h-70.4c-45.7 0-82.9 37.2-82.9 82.9v635.4c0 45.7 37.2 82.9 82.9 82.9h635.4c45.7 0 82.9-37.2 82.9-82.9V237.8c0-45.7-37.2-82.9-82.9-82.9h-89.6V88.3h89.6c82.5 0 149.5 67.1 149.5 149.5v635.4c-0.1 82.5-67.1 149.6-149.6 149.6z" fill="" p-id="3019"></path><path d="M657 67.5c36.7 0 66.5 29.9 66.5 66.5 0 36.7-29.9 66.5-66.5 66.5H367.3c-36.7 0-66.5-29.9-66.5-66.5 0-36.7 29.9-66.5 66.5-66.5H657m0-66.7H367.3C293.8 0.8 234.1 60.4 234.1 134c0 73.5 59.7 133.2 133.2 133.2H657c73.5 0 133.2-59.7 133.2-133.2C790.1 60.4 730.5 0.8 657 0.8zM556.8 396.9L354.6 718.1l23.1 88.4 89.7-17.4L669.6 468l-112.8-71.1z" fill="" p-id="3020"></path></svg>