<?xml version="1.0" standalone="no"?><!DOCTYPE svg PUBLIC "-//W3C//DTD SVG 1.1//EN" "http://www.w3.org/Graphics/SVG/1.1/DTD/svg11.dtd"><svg t="1587109309251" class="icon" viewBox="0 0 1024 1024" version="1.1" xmlns="http://www.w3.org/2000/svg" p-id="56447" xmlns:xlink="http://www.w3.org/1999/xlink" width="200" height="200"><defs><style type="text/css"></style></defs><path d="M874.547469 149.93842A509.089055 509.089055 0 0 0 512.321472 0.002016 509.060466 509.060466 0 0 0 150.095475 149.93842 508.51727 508.51727 0 0 0 0.00183 511.964292a508.360029 508.360029 0 0 0 150.093645 362.025872C246.898729 970.607588 375.493246 1023.998042 512.321472 1023.998042a509.10335 509.10335 0 0 0 362.29747-150.007878 508.88893 508.88893 0 0 0 150.093645-362.025872 508.51727 508.51727 0 0 0-150.093645-362.011578M831.091785 830.620248L630.309372 629.895013a166.403821 166.403821 0 0 1-74.775225 43.112613l73.545886 274.356889a456.198914 456.198914 0 0 1-233.517122 0l73.545886-274.356889a165.817741 165.817741 0 0 1-74.718046-43.112613L193.551159 830.620248A447.321947 447.321947 0 0 1 76.864071 628.537023l274.256826-73.388645a167.461624 167.461624 0 0 1 0-86.296699L76.864071 395.405856a448.193919 448.193919 0 0 1 116.629909-202.083225l200.839592 200.71094a166.475294 166.475294 0 0 1 74.789519-43.112613L395.577205 76.564069a456.198914 456.198914 0 0 1 233.517123 0l-73.560181 274.356889a166.532473 166.532473 0 0 1 74.789519 43.184086L831.091785 193.379809a448.251098 448.251098 0 0 1 116.944392 201.968868L673.464868 468.865974a167.504508 167.504508 0 0 1 0 86.296699l274.585603 73.517296a447.707902 447.707902 0 0 1-116.958686 201.940279M539.409801 373.463594l-27.159802-132.082408L487.248686 373.091934a141.616928 141.616928 0 1 0 52.17541 0.400249" fill="" p-id="56448"></path></svg>