<svg xmlns="http://www.w3.org/2000/svg" width="40" height="40" viewBox="0 0 40 40"><defs><style>.a{fill:none;}.b{fill:#65c279;}</style></defs><g transform="translate(-766 -406)"><rect class="a" width="40" height="40" transform="translate(766 406)"/><g transform="translate(469.857 129.065)"><path class="b" d="M323.987,295.388H308.3a1.764,1.764,0,1,1,0-3.528h11.735l-1.782-1.986a1.763,1.763,0,1,1,2.626-2.354l4.42,4.926a1.763,1.763,0,0,1-1.31,2.941ZM312.72,306.934a1.75,1.75,0,0,1-1.313-.587l-4.42-4.926a1.765,1.765,0,0,1,1.313-2.943h15.686a1.764,1.764,0,0,1,0,3.528H312.252l1.782,1.986a1.767,1.767,0,0,1-1.313,2.943Z" transform="translate(0 0)"/></g></g></svg>