<svg xmlns="http://www.w3.org/2000/svg" width="16" height="16" viewBox="0 0 16 16"><defs><style>.a{fill:#fff;}.b{fill:#0080ff;}</style></defs><g transform="translate(-738 -614)"><rect class="a" width="16" height="16" transform="translate(738 614)"/><path class="b" d="M74.715,135.324H59.782a.533.533,0,0,1-.533-.533v-4.266a.533.533,0,0,1,1.067,0v3.733H74.182v-3.733a.533.533,0,0,1,1.067,0v4.266A.533.533,0,0,1,74.715,135.324Zm-5.174-8.64-1.759-2.132v7.624a.533.533,0,1,1-1.067,0v-7.6l-1.743,2.112a.533.533,0,0,1-.757,0,.539.539,0,0,1,0-.76l2.636-3.2a.617.617,0,0,1,.811,0l2.635,3.2a.539.539,0,0,1,0,.76A.533.533,0,0,1,69.541,126.684Z" transform="translate(678.751 493.425)"/></g></svg>