<svg xmlns="http://www.w3.org/2000/svg" width="40.232" height="33.72" viewBox="0 0 40.232 33.72"><defs><style>.a{fill:#797979;}</style></defs><g transform="translate(0 -96.384)"><path class="a" d="M30.2,108.944a10.06,10.06,0,1,0-20.121,0,7.545,7.545,0,1,0,0,15.091v2.515A10.06,10.06,0,0,1,7.761,106.7a12.58,12.58,0,0,1,24.749,0A10.065,10.065,0,0,1,30.2,126.55v-2.515a7.545,7.545,0,1,0,0-15.091ZM10.075,124.035h5.03v2.515h-5.03v-2.515Zm15.091,0H30.2v2.515h-5.03Z" transform="translate(0 0)"/><path class="a" d="M390.44,484.279v13.089a1.258,1.258,0,1,1-2.515,0V484.279l-1.418,1.419a1.265,1.265,0,0,1-1.771-.008,1.243,1.243,0,0,1-.008-1.771l3.571-3.571a1.233,1.233,0,0,1,.885-.36,1.183,1.183,0,0,1,.88.357l3.571,3.574a1.265,1.265,0,0,1-.008,1.771,1.242,1.242,0,0,1-1.771.008Z" transform="translate(-369.256 -368.529)"/></g></svg>