<?xml version="1.0" standalone="no"?><!DOCTYPE svg PUBLIC "-//W3C//DTD SVG 1.1//EN" "http://www.w3.org/Graphics/SVG/1.1/DTD/svg11.dtd"><svg t="1587109771831" class="icon" viewBox="0 0 1024 1024" version="1.1" xmlns="http://www.w3.org/2000/svg" p-id="75590" xmlns:xlink="http://www.w3.org/1999/xlink" width="200" height="200"><defs><style type="text/css"></style></defs><path d="M885.42208 95.72352H152.8576c-73.61024 0-133.48352 59.84768-133.48352 133.45792v586.10176c0 73.59488 59.87328 133.46304 133.48352 133.46304h732.55936c73.61024 0 133.45792-59.86816 133.45792-133.46304V229.19168c0.00512-73.61536-59.84256-133.46816-133.4528-133.46816zM417.41312 729.53344H198.3744c-20.83328 0-37.6064-16.81408-37.6064-37.62688s16.77312-37.61152 37.6064-37.61152h219.03872c20.8128 0 37.61152 16.79872 37.61152 37.61152s-16.7936 37.62688-37.61152 37.62688z m0-169.87136H198.3744a37.51936 37.51936 0 0 1-37.6064-37.6064 37.54496 37.54496 0 0 1 37.6064-37.62688h219.03872a37.56544 37.56544 0 0 1 37.61152 37.62688 37.53984 37.53984 0 0 1-37.61152 37.6064z m0-171.72992H198.3744a37.5296 37.5296 0 0 1-37.6064-37.6064 37.5296 37.5296 0 0 1 37.6064-37.6064h219.03872a37.53984 37.53984 0 0 1 37.61152 37.6064 37.53984 37.53984 0 0 1-37.61152 37.6064z m419.22048 341.01248h-292.81792c-19.85024 0-35.8144-16.22528-35.8144-35.8144 0-62.51008 32.17408-120.16128 85.15072-153.52832-23.24992-24.62208-36.21888-56.99072-36.21888-90.77248 0-73.58976 59.89376-133.504 133.52448-133.504 73.61536 0 133.46304 59.91424 133.46304 133.504 0 33.78176-13.11744 65.94048-36.21376 90.77248 52.8128 33.37216 85.15072 90.8288 85.15072 153.52832-0.21504 19.58912-16.37376 35.8144-36.224 35.8144z" p-id="75591"></path></svg>