<?xml version="1.0" standalone="no"?><!DOCTYPE svg PUBLIC "-//W3C//DTD SVG 1.1//EN" "http://www.w3.org/Graphics/SVG/1.1/DTD/svg11.dtd"><svg t="1587109697792" class="icon" viewBox="0 0 1024 1024" version="1.1" xmlns="http://www.w3.org/2000/svg" p-id="69080" xmlns:xlink="http://www.w3.org/1999/xlink" width="200" height="200"><defs><style type="text/css"></style></defs><path d="M991.418 356.073L793.6 104.727c-20.945-25.6-51.2-41.89-83.782-41.89H314.182c-32.582 0-62.837 13.963-83.782 41.89L34.91 356.073C0 397.963 4.654 460.8 39.563 500.363l397.963 432.873 4.655 4.655c20.945 18.618 46.545 27.927 72.145 30.254h4.655c27.927-2.327 55.854-13.963 74.473-34.909l388.654-430.545c39.564-41.891 39.564-104.727 9.31-146.618zM754.036 470.109L567.855 646.982c-27.928 25.6-72.146 25.6-102.4 2.327l-4.655-2.327-193.164-179.2C256 456.145 256 435.2 269.964 423.564c16.29-11.637 37.236-11.637 51.2 2.327L512 602.764l186.182-174.546c13.963-11.636 34.909-13.963 51.2-2.327 16.29 9.309 16.29 30.254 4.654 44.218z" p-id="69081"></path></svg>