<?xml version="1.0" standalone="no"?><!DOCTYPE svg PUBLIC "-//W3C//DTD SVG 1.1//EN" "http://www.w3.org/Graphics/SVG/1.1/DTD/svg11.dtd"><svg t="1587104707944" class="icon" viewBox="0 0 1024 1024" version="1.1" xmlns="http://www.w3.org/2000/svg" p-id="14442" xmlns:xlink="http://www.w3.org/1999/xlink" width="200" height="200"><defs><style type="text/css"></style></defs><path d="M672 672v64h-64v-128h64v64z m64 64v-64h64v96c0 17.664-14.208 32-32 32h-96v-64h64zM0 128.128A128.064 128.064 0 0 1 128.128 0h767.744A128.064 128.064 0 0 1 1024 128.128v767.744A128.064 128.064 0 0 1 895.872 1024H128.128A128.064 128.064 0 0 1 0 895.872V128.128zM32 128v768c0 52.896 42.976 96 96 96h768c52.896 0 96-42.976 96-96V128c0-52.896-42.976-96-96-96H128C75.104 32 32 74.976 32 128z m512 416h64v64h-64v-64z m192 0h64v64h-64v-64z m-192 192h64v64h-64v-64zM256 287.904c0-17.6 14.496-31.904 31.904-31.904H512v256H256V287.904zM320 320v128h128v-128h-128z m32 32h64v64h-64v-64z m-96 192h256v256H287.904c-17.6 0-31.904-14.496-31.904-31.904V544z m288-288h224.096c17.6 0 31.904 14.496 31.904 31.904V512h-256V256z" p-id="14443"></path></svg>