<svg xmlns="http://www.w3.org/2000/svg" xmlns:xlink="http://www.w3.org/1999/xlink" width="110.152" height="106.392" viewBox="0 0 110.152 106.392"><defs><style>.a{fill:url(#a);}.b{fill:url(#b);}.c{fill:url(#e);}.d{fill:url(#f);}.e{fill:#fff;}.f{fill:url(#j);}.g,.m{opacity:0.88;}.g{fill:url(#m);}.h{fill:url(#n);}.i{fill:url(#o);}.j{fill:url(#r);}.k{fill:url(#s);}.l{fill:url(#w);}.m{fill:url(#z);}.n{filter:url(#x);}.o{filter:url(#t);}.p{filter:url(#p);}.q{filter:url(#k);}.r{filter:url(#g);}.s{filter:url(#c);}</style><linearGradient id="a" x1="0.11" y1="0.668" x2="0.833" y2="0.073" gradientUnits="objectBoundingBox"><stop offset="0" stop-color="#336ee5"/><stop offset="0.619" stop-color="#5e5ee8"/><stop offset="1" stop-color="#bf6cde"/></linearGradient><linearGradient id="b" x1="0.186" y1="0.085" x2="0.085" y2="0.413" gradientUnits="objectBoundingBox"><stop offset="0" stop-color="#9c7b49"/><stop offset="1" stop-color="#9a784b" stop-opacity="0"/></linearGradient><filter id="c" x="28.313" y="0" width="81.839" height="81.114" filterUnits="userSpaceOnUse"><feOffset dx="3" dy="-3" input="SourceAlpha"/><feGaussianBlur stdDeviation="12.5" result="d"/><feFlood flood-color="#ffe4bc" flood-opacity="0.42"/><feComposite operator="in" in2="d"/><feComposite in="SourceGraphic"/></filter><linearGradient id="e" x1="0.113" y1="0.918" x2="0.908" y2="-0.095" gradientUnits="objectBoundingBox"><stop offset="0" stop-color="#3392f1"/><stop offset="0.261" stop-color="#95bcff"/><stop offset="1" stop-color="#3c5ee9"/></linearGradient><linearGradient id="f" x1="0.221" y1="0.895" x2="0.775" y2="0.08" gradientUnits="objectBoundingBox"><stop offset="0" stop-color="#05408f"/><stop offset="0.204" stop-color="#1a65e4"/><stop offset="1" stop-color="#4452d1"/></linearGradient><filter id="g" x="31.026" y="37.722" width="29.684" height="13.493" filterUnits="userSpaceOnUse"><feOffset dx="-5" dy="3" input="SourceAlpha"/><feGaussianBlur stdDeviation="6" result="h"/><feFlood flood-color="#230060" flood-opacity="0.42" result="i"/><feComposite operator="out" in="SourceGraphic" in2="h"/><feComposite operator="in" in="i"/><feComposite operator="in" in2="SourceGraphic"/></filter><linearGradient id="j" x1="0.773" y1="0.198" x2="0.225" y2="0.92" gradientUnits="objectBoundingBox"><stop offset="0" stop-color="#1e121c"/><stop offset="0.204" stop-color="#ae884b"/><stop offset="1" stop-color="#3a3240"/></linearGradient><filter id="k" x="0" y="3.644" width="92.803" height="86.326" filterUnits="userSpaceOnUse"><feOffset dx="2" dy="3" input="SourceAlpha"/><feGaussianBlur stdDeviation="12.5" result="l"/><feFlood flood-color="#ffdeb4" flood-opacity="0.322"/><feComposite operator="in" in2="l"/><feComposite in="SourceGraphic"/></filter><linearGradient id="m" x1="0.5" y1="1" x2="0.397" y2="0.741" gradientUnits="objectBoundingBox"><stop offset="0" stop-color="#08a8c5"/><stop offset="1" stop-color="#08cbe3" stop-opacity="0"/></linearGradient><linearGradient id="n" x1="0.89" y1="0.332" x2="0.167" y2="0.927" gradientUnits="objectBoundingBox"><stop offset="0" stop-color="#3571e9"/><stop offset="0.619" stop-color="#3838bb"/><stop offset="1" stop-color="#9746b7"/></linearGradient><linearGradient id="o" x1="0.814" y1="0.915" x2="0.915" y2="0.587" xlink:href="#b"/><filter id="p" x="1.096" y="16.921" width="81.839" height="81.114" filterUnits="userSpaceOnUse"><feOffset dx="3" dy="-3" input="SourceAlpha"/><feGaussianBlur stdDeviation="12.5" result="q"/><feFlood flood-color="#ffe4bc" flood-opacity="0.42"/><feComposite operator="in" in2="q"/><feComposite in="SourceGraphic"/></filter><linearGradient id="r" x1="0.887" y1="0.082" x2="0.092" y2="1.095" gradientUnits="objectBoundingBox"><stop offset="0" stop-color="#098fc2"/><stop offset="0.261" stop-color="#5e99ff"/><stop offset="1" stop-color="#1033bf"/></linearGradient><linearGradient id="s" x1="0.779" y1="0.105" x2="0.225" y2="0.92" gradientUnits="objectBoundingBox"><stop offset="0" stop-color="#07182f"/><stop offset="0.204" stop-color="#1a65e4"/><stop offset="1" stop-color="#081587"/></linearGradient><filter id="t" x="44.538" y="52.821" width="29.684" height="13.493" filterUnits="userSpaceOnUse"><feOffset dx="-5" dy="3" input="SourceAlpha"/><feGaussianBlur stdDeviation="6" result="u"/><feFlood flood-color="#230060" flood-opacity="0.42" result="v"/><feComposite operator="out" in="SourceGraphic" in2="u"/><feComposite operator="in" in="v"/><feComposite operator="in" in2="SourceGraphic"/></filter><linearGradient id="w" x1="0.227" y1="0.802" x2="0.775" y2="0.08" xlink:href="#j"/><filter id="x" x="16.445" y="20.066" width="92.803" height="86.326" filterUnits="userSpaceOnUse"><feOffset dx="2" dy="3" input="SourceAlpha"/><feGaussianBlur stdDeviation="12.5" result="y"/><feFlood flood-color="#ffdeb4" flood-opacity="0.322"/><feComposite operator="in" in2="y"/><feComposite in="SourceGraphic"/></filter><linearGradient id="z" y1="0" x2="0.603" y2="0.259" xlink:href="#m"/></defs><g transform="translate(14.225 -22.278)"><g transform="translate(55.428 76.264) rotate(180)"><path class="a" d="M38.629,3.608a15.344,15.344,0,0,0-3.9-2.532A11.884,11.884,0,0,0,29.607.008a13.971,13.971,0,0,0-6.725,1.769,35.275,35.275,0,0,0-5.465,4.129c-.584.618-2.409,2.4-3.734,3.657a9.774,9.774,0,0,1-7.769,2.07,7.89,7.89,0,0,1-5.391-3.4C.071,7.494,0,7.373,0,7.373a9.085,9.085,0,0,0,2.687,5.006,14.09,14.09,0,0,0,6.489,3.372A13.476,13.476,0,0,0,19.562,14.5,46.4,46.4,0,0,0,25.8,9.581,33.6,33.6,0,0,1,29.8,6.587a16.11,16.11,0,0,1,5.5-2.378A26.475,26.475,0,0,1,38.629,3.608Z" transform="translate(0 0)"/><g class="s" transform="matrix(-1, 0, 0, -1, 69.65, 53.99)"><path class="b" d="M0,0C0,.005.082.138.523.861a7.863,7.863,0,0,0,5.391,3.4c.5.086,1.275,1.843.749,1.852l-.333,0c-.489,0-.938-.019-1.332-.056a7.283,7.283,0,0,1-.839-.123A2.074,2.074,0,0,1,3.6,5.756c.009.007-.387-.293-.909-.751A7.515,7.515,0,0,1,1.315,3.387,9.325,9.325,0,0,1,.5,1.759,9.953,9.953,0,0,1,.1.5C.029.2,0,.008,0,0Z" transform="translate(69.65 46.61) rotate(180)"/></g><path class="c" d="M25.572.027a14.721,14.721,0,0,0-4.764,1.012A16.98,16.98,0,0,0,18.3,2.349c-1.667,1.135-2.7,2-2.7,2s-2.042,1.71-2.667,2.429c-.984,1-3.932,3.8-4.633,4.344s-2.814,2.312-5.232,2.351S0,13.121,0,13.121a14.886,14.886,0,0,0,2.978,1.767,5.53,5.53,0,0,0,3.733.354A10.663,10.663,0,0,0,11.6,12.4c1.653-1.533,4.925-4.924,6.428-6.328a17.913,17.913,0,0,1,6.792-3.93,19.782,19.782,0,0,1,4.121-.877,12.365,12.365,0,0,1,2.5-.049A11.808,11.808,0,0,0,28.7.263,10.49,10.49,0,0,0,25.572.027Z" transform="translate(3.596 0.008)"/><g data-type="innerShadowGroup"><path class="d" d="M29.684.838a14.846,14.846,0,0,0-5.523-.8A15.389,15.389,0,0,0,17.13,2.892C15.277,4.22,10.6,8.767,10.31,8.959A28.422,28.422,0,0,1,6.692,11.6a11.379,11.379,0,0,1-2.627,1.087A9.653,9.653,0,0,1,1.65,13,10.549,10.549,0,0,1,0,12.92a13.212,13.212,0,0,0,1.884.395,14.835,14.835,0,0,0,2.389.177A13.089,13.089,0,0,0,6.854,13.2a12.117,12.117,0,0,0,3.1-1.115,20.111,20.111,0,0,0,3.37-2.232c.717-.573,4.667-4.012,5.141-4.357.152-.111,1.45-1.113,2.761-1.912.826-.5,1.729-.924,2.164-1.154a21.556,21.556,0,0,1,5.539-1.5" transform="translate(8.942 2.771)"/><g class="r" transform="matrix(-1, 0, 0, -1, 69.65, 53.99)"><path class="e" d="M29.684.838a14.846,14.846,0,0,0-5.523-.8A15.389,15.389,0,0,0,17.13,2.892C15.277,4.22,10.6,8.767,10.31,8.959A28.422,28.422,0,0,1,6.692,11.6a11.379,11.379,0,0,1-2.627,1.087A9.653,9.653,0,0,1,1.65,13,10.549,10.549,0,0,1,0,12.92a13.212,13.212,0,0,0,1.884.395,14.835,14.835,0,0,0,2.389.177A13.089,13.089,0,0,0,6.854,13.2a12.117,12.117,0,0,0,3.1-1.115,20.111,20.111,0,0,0,3.37-2.232c.717-.573,4.667-4.012,5.141-4.357.152-.111,1.45-1.113,2.761-1.912.826-.5,1.729-.924,2.164-1.154a21.556,21.556,0,0,1,5.539-1.5" transform="translate(60.71 51.21) rotate(180)"/></g></g><g class="q" transform="matrix(-1, 0, 0, -1, 69.65, 53.99)"><path class="f" d="M17.8,0h0a10.592,10.592,0,0,0-1.817.682c-.118.062-.269.138-.445.226-.471.236-1.117.56-1.719.927-1.166.711-2.3,1.564-2.67,1.844l-.09.068C10.8,3.936,9.523,5.034,8.284,6.1h0c-1.048.9-2.037,1.747-2.365,2.008-.509.406-.983.759-1.448,1.081a15.72,15.72,0,0,1-1.921,1.151,12.307,12.307,0,0,1-1.153.527,11.907,11.907,0,0,1-1.4.462,12.839,12.839,0,0,0,2.068-.851A19.458,19.458,0,0,0,5.437,8.242C5.765,7.981,6.754,7.133,7.8,6.235c1.239-1.063,2.521-2.162,2.779-2.35l.087-.065,0,0c.178-.134.549-.414,1.028-.753.594-.421,1.147-.789,1.644-1.092.6-.367,1.248-.691,1.719-.927.176-.088.327-.164.445-.227A12.415,12.415,0,0,1,17.8,0Z" transform="translate(53.3 49.47) rotate(180)"/></g><path class="g" d="M19.641,3.6c-1.289.924-3.949,3.409-5.538,4.894-.693.647-1.193,1.115-1.281,1.174-.071.047-.247.192-.49.391A20.893,20.893,0,0,1,9.2,12.306l-.024.012a11.323,11.323,0,0,1-2.6,1.075,8.466,8.466,0,0,1-2.1.3h0l-.315.015c-.1.006-.213.008-.33.008a11.46,11.46,0,0,1-1.319-.088A16.474,16.474,0,0,1,0,12.773l.142.057a9.585,9.585,0,0,0,1.185.39,4.55,4.55,0,0,0,1.105.136,7.058,7.058,0,0,0,1.443-.172,10.667,10.667,0,0,0,4.888-2.847c.86-.8,2.161-2.1,3.42-3.364h0c1.176-1.178,2.286-2.291,3.007-2.964a18.5,18.5,0,0,1,2.942-2.2A17.951,17.951,0,0,1,19.987.821,14.154,14.154,0,0,1,21.98.08C24.232-.56,20.687,2.847,19.641,3.6Z" transform="translate(6.425 2.047)"/></g><g transform="translate(60 88.592) rotate(180)"><path class="h" d="M0,12.651a15.344,15.344,0,0,0,3.9,2.532,11.884,11.884,0,0,0,5.124,1.068,13.968,13.968,0,0,0,6.724-1.769,35.219,35.219,0,0,0,5.465-4.128c.584-.618,2.409-2.4,3.734-3.657a9.774,9.774,0,0,1,7.769-2.07,7.89,7.89,0,0,1,5.391,3.4c.453.74.523.861.523.861a9.08,9.08,0,0,0-2.687-5.006A14.09,14.09,0,0,0,29.453.508,13.477,13.477,0,0,0,19.066,1.764a46.407,46.407,0,0,0-6.233,4.914A33.51,33.51,0,0,1,8.826,9.673a16.11,16.11,0,0,1-5.5,2.378A26.475,26.475,0,0,1,0,12.651Z" transform="translate(0 0.005)"/><g class="p" transform="matrix(-1, 0, 0, -1, 74.22, 66.31)"><path class="i" d="M6.839,6.114c0-.005-.082-.138-.523-.861a7.863,7.863,0,0,0-5.391-3.4C.422,1.768-.35.011.176,0L.509,0C1,0,1.447.019,1.842.056a7.282,7.282,0,0,1,.839.123,2.073,2.073,0,0,1,.562.179c-.009-.007.387.293.909.751A7.517,7.517,0,0,1,5.524,2.727a9.324,9.324,0,0,1,.818,1.628,9.96,9.96,0,0,1,.395,1.256c.073.3.1.5.1.5Z" transform="translate(42.44 63.54) rotate(180)"/></g><path class="j" d="M5.86,15.388a14.725,14.725,0,0,0,4.764-1.012,17,17,0,0,0,2.507-1.311c1.667-1.135,2.7-2,2.7-2s2.042-1.71,2.667-2.429c.984-1,3.932-3.8,4.633-4.344s2.814-2.312,5.231-2.351,3.068.355,3.068.355A14.874,14.874,0,0,0,28.456.526,5.53,5.53,0,0,0,24.723.172a10.667,10.667,0,0,0-4.887,2.847c-1.653,1.533-4.925,4.924-6.428,6.328a17.908,17.908,0,0,1-6.792,3.93,19.779,19.779,0,0,1-4.121.877A12.365,12.365,0,0,1,0,14.2a11.822,11.822,0,0,0,2.731.948A10.493,10.493,0,0,0,5.86,15.388Z" transform="translate(3.6 0.842)"/><g data-type="innerShadowGroup"><path class="k" d="M0,12.655a14.846,14.846,0,0,0,5.523.8A15.389,15.389,0,0,0,12.554,10.6c1.853-1.328,6.53-5.875,6.82-6.068a28.421,28.421,0,0,1,3.619-2.642A11.36,11.36,0,0,1,25.62.8,9.65,9.65,0,0,1,28.034.493a10.538,10.538,0,0,1,1.65.08A13.21,13.21,0,0,0,27.8.178,14.83,14.83,0,0,0,25.411,0,13.084,13.084,0,0,0,22.831.29a12.118,12.118,0,0,0-3.1,1.115,20.064,20.064,0,0,0-3.37,2.232c-.717.573-4.667,4.012-5.142,4.357C11.064,8.1,9.766,9.106,8.456,9.9c-.826.5-1.729.924-2.164,1.154a21.554,21.554,0,0,1-5.54,1.5" transform="translate(0.003 0)"/><g class="o" transform="matrix(-1, 0, 0, -1, 74.22, 66.31)"><path class="e" d="M0,12.655a14.846,14.846,0,0,0,5.523.8A15.389,15.389,0,0,0,12.554,10.6c1.853-1.328,6.53-5.875,6.82-6.068a28.421,28.421,0,0,1,3.619-2.642A11.36,11.36,0,0,1,25.62.8,9.65,9.65,0,0,1,28.034.493a10.538,10.538,0,0,1,1.65.08A13.21,13.21,0,0,0,27.8.178,14.83,14.83,0,0,0,25.411,0,13.084,13.084,0,0,0,22.831.29a12.118,12.118,0,0,0-3.1,1.115,20.064,20.064,0,0,0-3.37,2.232c-.717.573-4.667,4.012-5.142,4.357C11.064,8.1,9.766,9.106,8.456,9.9c-.826.5-1.729.924-2.164,1.154a21.554,21.554,0,0,1-5.54,1.5" transform="translate(74.22 66.31) rotate(180)"/></g></g><g class="n" transform="matrix(-1, 0, 0, -1, 74.22, 66.31)"><path class="l" d="M0,11.326H0a10.592,10.592,0,0,0,1.817-.682c.118-.062.269-.138.445-.226.471-.236,1.117-.56,1.719-.927,1.166-.711,2.3-1.564,2.67-1.844l.09-.068C7,7.39,8.28,6.292,9.519,5.229h0c1.048-.9,2.037-1.747,2.365-2.008.509-.406.983-.759,1.448-1.081A15.719,15.719,0,0,1,15.253.989,12.305,12.305,0,0,1,16.407.462,11.908,11.908,0,0,1,17.8,0a12.839,12.839,0,0,0-2.068.851,19.458,19.458,0,0,0-3.369,2.232C12.038,3.345,11.049,4.193,10,5.09,8.763,6.153,7.481,7.252,7.223,7.44l-.087.065,0,0c-.178.134-.549.414-1.028.753-.594.421-1.147.789-1.644,1.092-.6.367-1.248.691-1.719.927-.176.088-.327.164-.445.227A12.415,12.415,0,0,1,0,11.326Z" transform="translate(69.75 65.89) rotate(180)"/></g><path class="m" d="M3.075,10.116c1.289-.924,3.949-3.409,5.538-4.894.693-.647,1.193-1.115,1.281-1.174.071-.047.247-.192.49-.391a20.894,20.894,0,0,1,3.128-2.25l.024-.012A11.323,11.323,0,0,1,16.139.32a8.466,8.466,0,0,1,2.1-.3h0l.315-.015c.1-.006.213-.008.33-.008A11.46,11.46,0,0,1,20.2.088,16.474,16.474,0,0,1,22.715.94L22.573.883a9.585,9.585,0,0,0-1.185-.39A4.55,4.55,0,0,0,20.283.357,7.058,7.058,0,0,0,18.84.529a10.667,10.667,0,0,0-4.888,2.847c-.86.8-2.161,2.1-3.42,3.364h0C9.356,7.918,8.245,9.031,7.524,9.7a18.5,18.5,0,0,1-2.942,2.2,17.952,17.952,0,0,1-1.854.985,14.154,14.154,0,0,1-1.993.741C-1.517,14.273,2.028,10.866,3.075,10.116Z" transform="translate(9.488 0.504)"/></g></g></svg>